<?xml version="1.0" encoding="UTF-8"?>
<svg id="_Слой_2" data-name="Слой 2" xmlns="http://www.w3.org/2000/svg" viewBox="0 0 700 931">
  <defs>
    <style>
      .cls-1 {
        letter-spacing: 0em;
      }

      .cls-2 {
        letter-spacing: 0em;
      }

      .cls-3 {
        letter-spacing: 0em;
      }

      .cls-4 {
        letter-spacing: 0em;
      }

      .cls-5 {
        letter-spacing: .01em;
      }

      .cls-6 {
        letter-spacing: 0em;
      }

      .cls-7 {
        letter-spacing: 0em;
      }

      .cls-8 {
        letter-spacing: -.02em;
      }

      .cls-9 {
        letter-spacing: -.02em;
      }

      .cls-10, .cls-11, .cls-12 {
        font-size: 12px;
      }

      .cls-10, .cls-13 {
        font-family: MyriadPro-Regular, 'Myriad Pro';
      }

      .cls-14 {
        stroke-width: 0px;
      }

      .cls-15 {
        stroke: #b2ac97;
      }

      .cls-15, .cls-16, .cls-17, .cls-18, .cls-19, .cls-20 {
        stroke-miterlimit: 10;
      }

      .cls-15, .cls-16, .cls-19 {
        fill: none;
      }

      .cls-15, .cls-19 {
        stroke-width: 2px;
      }

      .cls-21 {
        letter-spacing: -.06em;
      }

      .cls-22 {
        letter-spacing: .01em;
      }

      .cls-23 {
        letter-spacing: 0em;
      }

      .cls-24 {
        letter-spacing: -.02em;
      }

      .cls-25 {
        letter-spacing: -.01em;
      }

      .cls-26 {
        letter-spacing: 0em;
      }

      .cls-27 {
        letter-spacing: 0em;
      }

      .cls-16 {
        stroke: #358c92;
      }

      .cls-28 {
        letter-spacing: 0em;
      }

      .cls-29 {
        letter-spacing: .01em;
      }

      .cls-30 {
        letter-spacing: 0em;
      }

      .cls-31 {
        letter-spacing: 0em;
      }

      .cls-11, .cls-32 {
        font-family: MicrosoftSansSerif, 'Microsoft Sans Serif';
      }

      .cls-33 {
        letter-spacing: 0em;
      }

      .cls-17 {
        opacity: .41;
        stroke: #2d4697;
      }

      .cls-17, .cls-18, .cls-20 {
        fill: #fff;
      }

      .cls-34 {
        letter-spacing: .02em;
      }

      .cls-35 {
        font-size: 18px;
      }

      .cls-35, .cls-12 {
        font-family: Lato-ExtraBold, Lato;
        font-weight: 700;
      }

      .cls-36 {
        letter-spacing: -.02em;
      }

      .cls-37 {
        letter-spacing: -.01em;
      }

      .cls-32 {
        font-size: 10px;
      }

      .cls-38 {
        letter-spacing: 0em;
      }

      .cls-18 {
        stroke-width: 3px;
      }

      .cls-18, .cls-20 {
        stroke: #577c6c;
      }

      .cls-39 {
        letter-spacing: 0em;
      }

      .cls-40 {
        letter-spacing: -.01em;
      }

      .cls-19 {
        stroke: #b2ac96;
      }

      .cls-41 {
        letter-spacing: -.02em;
      }

      .cls-13 {
        fill: #158ce5;
        font-size: 8px;
      }
    </style>
  </defs>
  <path class="cls-17" d="M26.25,813.26h647.19V63.33H26.25v749.93Z"/>
  <path class="cls-16" d="M398.18,64.54c-.93.6-3.2,2.25-4.25,5.26-.86,2.47-.51,4.7-.4,5.26.39,2.13,1.14,2.3,1.15,3.91,0,1.29-.49,1.79-2.02,4.85-1.46,2.92-2.19,4.37-2.22,5.33-.08,2.18,1.11,2.39,1.35,5.6.11,1.48.22,3.03-.74,4.11-1.03,1.16-2.45.83-2.76,1.69-.34.93,1.19,1.78,2.36,3.51,2.09,3.07.29,4.89,2.09,9.98,1.06,3,1.8,2.68,2.16,4.85.56,3.38-1.15,4.53-1.08,7.82.08,3.55,2.12,3.36,3.24,7.82.88,3.49.5,7.06,0,11.87-.32,3.02-.68,4.4.27,5.39,1.56,1.63,4.7.15,6.07,2.02.73,1,.1,1.8.94,2.97,1.01,1.39,2.63,1.23,3.78,1.75,5.62,2.55.23,21.53-.81,25.21-.17.6-.54,1.83-1.48,2.16-1.08.38-1.83-.8-3.51-.94-1.6-.13-3.22.75-4.04,1.75-1.25,1.52-.51,3.12-.54,6.34-.04,4.14-1.28,3.95-2.29,10.52-.65,4.21-.16,4.45-.94,7.42-.8,3.02-1.59,6.04-4.04,7.42-1.95,1.1-2.58-.19-6.2.81-1.7.47-4.66,1.28-6.61,3.78-1.16,1.49-1.12,2.49-2.29,2.97-1.53.62-2.6-.67-4.45-.4-2.22.32-3.6,2.59-3.91,3.1-2.98,4.89,3.23,9.74,1.21,16.18-.79,2.53-1.69,1.59-7.28,8.36-3.7,4.48-5.99,8.14-7.55,10.65-3.22,5.18-4.32,7.97-4.85,9.44-.82,2.26-1.28,3.53-1.48,5.12-.89,6.98,4.65,8.69,6.47,17.93,1.04,5.27-.13,7.87,2.43,11.46.56.79,1.69,1.98,3.91,4.31,2.17,2.28,4,4.13,5.26,5.39"/>
  <path class="cls-16" d="M391.08,782.79c.5-.41,1.24-1.04,2.05-1.9,3.05-3.22,2.86-5.57,4.65-7.48,4.66-4.99,11.4-3.22,12.74-7.28.64-1.95-.53-3.54.81-5.06.91-1.03,2.51-1.49,3.84-1.21,2.11.44,2.3,2.44,4.25,4.25,3.65,3.38,9.89,2.74,13.55,1.42,2.05-.74,3.94-1.43,4.85-3.24,1.78-3.52-1.29-8.98-4.65-11.93-2.45-2.15-3.4-1.52-4.45-3.24-2.32-3.79,1.82-7.67-.35-11.63-1.54-2.82-4.21-1.91-5.52-4.75-1.28-2.77,1.08-4.03,1.21-9.71.11-4.62-1.4-6.01-.2-9.3.77-2.11,1.54-1.95,2.83-4.25,2.57-4.56,2.03-9.58,1.62-13.35-.27-2.46-.5-2.35-2.02-8.9-2.62-11.28-1.81-11.04-3.03-13.15-2.69-4.62-5.46-3.81-10.52-10.52-2.12-2.81-3.18-4.22-3.44-6.07-.35-2.51.61-4.21,4.04-12.94.61-1.56,1.11-2.84,1.42-3.64"/>
  <path class="cls-16" d="M369.26,811.78c-.72-1.18-1.52-2.92-1.21-4.85.34-2.2,1.79-2.66,1.75-4.45-.05-2.38-2.65-2.79-3.1-5.39-.49-2.86,2.13-5.38,2.43-5.66,2.39-2.24,5.5-1.35,8.76-1.62,3.39-.28,8.01-1.77,13.37-7.15"/>
  <path class="cls-16" d="M26.25,495.66c3.1-1.96,5.89-2.79,7.69-3.17,2.46-.53,4.36-.89,6.27,0,1.94.9,1.63,2.05,3.64,3.24,1.84,1.08,4.75,1.68,7.08.61,2.64-1.21,2.15-3.47,5.26-5.06,1.92-.98,2.22-.17,4.25-1.21,2.71-1.39,2.5-3,5.26-4.45,1.7-.89,1.84-.31,4.25-1.42,1.97-.9,2.08-1.38,4.45-2.63,2.44-1.28,3.65-1.92,4.85-1.62,1.82.46,1.5,2.24,3.64,3.44,2.1,1.18,3.15-.12,6.47,1.01,1.45.5,2.79.95,3.64,2.22,1.13,1.69.21,3.04,1.42,4.45.95,1.12,1.8.58,3.44,1.62,1.88,1.19,1.56,2.41,3.64,5.06.79,1,2.22,2.79,4.65,4.04.73.38,2.86,1.45,5.66,1.42,3.04-.04,3.5-1.33,5.87-1.01,1.77.24,4.15,1.32,4.85,3.24.75,2.03-1.07,3.19-.2,5.06.66,1.44,1.87,1.03,3.84,3.24.57.64.36.54,2.02,2.83,1.93,2.65,2.3,2.89,2.63,3.03.57.25,1.15.3,4.25-.4,3.99-.91,3.76-1.14,5.06-1.21,2.66-.14,3.11.88,5.26.4,1.78-.39,1.64-1.13,3.44-1.62,2.82-.76,4.01.83,5.87,0,1.77-.79,1.05-2.39,3.03-4.45,2.46-2.55,4.73-1.27,7.48-4.04.91-.92.41-.8,2.43-3.44,2.44-3.19,2.94-3.05,3.44-4.45.38-1.05.07-1.07.61-5.46.25-2.04.37-2.53.81-2.83,1.05-.73,2.96.3,4.65,1.21,3.04,1.64,3.06,2.64,4.65,2.83,1.37.16,1.44-.57,5.06-1.62,3.31-.96,4.32-.66,4.85-.4,1.04.49.97,1.1,2.02,2.02,2.21,1.94,4.04.56,6.47,2.02,2.52,1.51,1.32,3.45,4.25,5.46,1.79,1.23,2.64.78,4.65,2.43,1.38,1.13,1.61,1.86,2.63,2.02,1.41.22,1.86-1.05,3.84-1.62,2.74-.79,4.36.91,5.26,0,.95-.96-.8-2.93-.4-6.27.26-2.18,1.13-2.4,1.62-4.25,1.31-4.98-2.7-12.43-8.09-14.56-1.57-.62-2.6-.53-3.44-1.62-1.5-1.97-.69-5.57,1.01-7.89,1.05-1.42,1.71-1.38,3.84-3.03.57-.44,4.11-3.23,6.67-7.69,1.67-2.91,2.59-5.93,3.03-7.69.95-3.78.53-5.08,1.82-6.07.81-.62,2.98-.62,7.28-.61,2.62,0,3.24.08,4.04-.4,1.81-1.08,1-3.1,2.63-4.85,1.27-1.37,3.07-1.52,6.67-1.82,3.31-.28,6.3-.53,7.69,1.21.92,1.16.27,2.16,1.21,2.83,1.61,1.15,3.78-1.17,6.47-.4,1.82.52,1.47,1.76,3.84,3.64,2.3,1.82,3.31,1.19,9.1,3.84,2.68,1.23,3.51,1.84,4.04,2.83.9,1.66.07,2.71.81,4.25,1.08,2.25,4.19,2.82,6.47,3.24,1.88.34,6.53,1.19,9.71-1.42,1.89-1.55,1.28-2.71,3.03-3.64,2.79-1.49,5.24.96,7.69-.61,1.62-1.04.9-2.34,2.63-3.64,2.21-1.67,6.02-1.53,8.29.2,1.6,1.22,1.17,2.27,2.63,3.03,2.39,1.25,4.32-1.17,6.88-.2,2.45.93,1.73,3.55,4.25,4.85,1.4.72,1.97.1,8.7-.81,5.59-.76,6.91-.56,7.69-.4,2.16.44,2.64,1.07,4.04.81,2.44-.46,2.59-2.69,5.06-3.84,2.44-1.14,3.56.45,7.28.2,4.49-.3,4.53-2.71,9.1-3.44,3.46-.55,3.21.87,10.31,1.42,5.08.39,6.87-.21,8.7,1.42.52.47,1.36,1.79,3.03,4.45,1.79,2.84,1.68,2.87,2.22,3.64,2.48,3.51,6.57,5.48,10.72,7.48,1.88.91,3.21,1.4,3.84,2.83.74,1.68-.36,2.65.4,4.25.91,1.91,2.86,1.28,4.65,3.44,1.53,1.84.57,2.86,2.02,4.65,1.82,2.24,3.9,1.37,5.66,3.24,1.74,1.84.71,3.75,1.42,7.69.1.56,1.29,6.73,6.07,10.92,3.95,3.46,8.67,4.1,9.91,4.25,5.61.68,8.13-1.67,12.54.4,1.39.65,2.23,1.4,4.04,1.62,2.76.33,4.26-.99,6.07-1.42,4.83-1.15,11.92,4.04,14.36,10.52,2.17,5.76.08,11.02-1.01,13.75-2.81,7.08-8.18,10.81-10.31,12.13"/>
  <path class="cls-19" d="M673.44,450.85c-9.78,5.62-17.89,8.91-23.66,10.91-5.53,1.91-8.3,2.44-13.55,5.06-7.39,3.69-8.34,5.88-12.64,6.27-3.82.35-4.79-1.21-14.26-4.85-10.4-4-10.66-2.66-16.08-5.56-4.62-2.47-7.49-5.12-13.25-10.42-5.19-4.78-7.79-7.22-8.29-9.91-.86-4.61,2.56-6.15,4.45-14.06,1.58-6.62-.16-8.31.81-14.06,1.25-7.42,5.19-10.77,9.61-17.19,11.77-17.13,4.87-24.04,15.88-37.42,4.44-5.4,4.82-3.37,16.52-15.03,11.37-11.34,12.9-15.15,13.48-18.34,1.41-7.7-2.43-13.31.54-15.47,2.29-1.66,5.67.85,12.34-.61.53-.11,2.09-.48,3.84-.91,3.26-.81,3.98-1.07,5.56-1.42,2.66-.58,4.57-.68,6.07-.81,2.79-.23,6.92-.77,12.64-2.12"/>
  <path class="cls-19" d="M571.58,440.58c-1.58.58-3.76,1.26-6.42,1.76-1.77.33-4.64.87-7.82.67-4.7-.29-7.91-2.12-11.46-3.91,0,0-6.13-3.09-15.91-6.74-6.14-2.29-13.48-2.95-27.91-4.18-5.31-.45-11.32-.95-19.69-1.21-29.23-.91-29.88,2.89-48.67,2.02-2.68-.12-7.94-.45-14.02,1.89-5.26,2.02-5.87,4.01-10.11,6.34-12.43,6.83-23.06-1.5-29.26,5.12-2.85,3.05-.83,5.07-5.12,10.79-1.1,1.46-4.14,5.42-9.44,7.82-1.94.88-3.27,1.14-10.65,2.02-10.73,1.29-16.15,1.92-19.01,1.48-4.71-.72-4.06-1.65-11.6-3.24-5.58-1.17-8.72-1.83-12.81-1.35-4.27.5-4.66,1.67-12.13,3.91-5.81,1.74-8.71,2.61-11.6,2.56-6.88-.13-15.55-4.59-17.39-11.33-.86-3.15.37-7,2.83-14.7,1.6-5.01,2.13-5.04,3.1-8.76.99-3.78,2.39-9.17,1.21-14.43-1.22-5.44-3.96-5.16-10.11-14.29-3.21-4.77-6.36-9.43-8.09-16.18-1.59-6.21-.25-7.39-2.43-12.4-1.88-4.34-3.48-4.83-6.88-10.92-1.58-2.84-2.56-5.21-4.45-9.84-3.09-7.56-5.08-13.66-5.93-16.31-5.05-15.79-3.14-15.03-5.8-19.82-3.97-7.14-6.68-6.06-13.08-15.64-1.56-2.33-4.58-6.92-7.01-13.48-2.5-6.75-1.05-6.6-4.18-17.66-1.98-6.99-3.14-9.09-2.7-13.35.41-3.96,1.63-4.26,2.16-8.9.55-4.85-.31-8.75-1.08-12.27-1.22-5.57-2.24-6.04-2.97-10.79-.51-3.3-.18-4.17-.27-9.44-.1-6.13-.56-6.41-1.21-17.53-.49-8.42-.36-10.42.94-12.67.88-1.51,1.35-1.53,5.39-5.8,1.85-1.95,3.43-3.77,6.61-7.42,4.28-4.92,6.43-7.38,8.76-10.38,3.94-5.06,3.58-5.34,9.44-13.48,5.63-7.82,5.64-7.1,7.55-10.38,3.06-5.25,2.66-6.44,6.61-13.75,2.37-4.4,2.72-4.35,5.12-8.9,2.79-5.29,3.54-7.66,5.12-10.92,2.89-5.94,5.94-9.47,10.25-14.7,5.32-6.46,12.01-14.87,21.17-26.8"/>
  <path class="cls-19" d="M26.25,517.5c1.74-.4,4.32-1.02,7.42-1.95,5.12-1.53,4.73-1.76,7.01-2.29,1-.23,2.23-.45,13.75.13,4.5.23,5.17.3,6.2.54,3.58.81,4.55,1.97,7.69,2.56,2.16.41,3.33.17,7.01-.13,5.19-.44,9.67-.54,11.73-.54,5.88,0,10.36.89,14.7,1.75,5,.99,8.56,2.08,11.06,2.83,14.34,4.3,21.51,6.45,29.66,7.69,7.79,1.18,14.66,2.14,23.06,0,5.96-1.52,4.6-2.55,14.43-6.34,7.44-2.87,16.4-6.33,27.78-7.42,3.47-.33,5.96-.33,9.71-1.62,5.65-1.94,9.36-5.18,11.73-7.28,3.46-3.07,2.76-3.38,11.73-13.35,1.95-2.17,3.82-4.2,6.74-6.34,2.72-1.99,3.31-1.86,5.39-3.51,4.11-3.24,6.15-7.19,6.88-8.63,2.69-5.33,1.36-7.19,3.78-10.92,2.1-3.25,5.18-5.03,7.49-6.03"/>
  <path class="cls-19" d="M207.26,263.08c-2.14,3.54-4.02,6.64-5.56,9.17-6.93,11.38-8.27,13.37-10.42,15.98-3.32,4.02-3.54,3.4-6.47,7.18-1.09,1.41-2.92,3.89-7.48,12.24-1.11,2.04-3.09,5.7-7.69,14.87-2.16,4.31-3.61,7.2-5.56,11.22-6.15,12.68-9.22,19.03-10.72,22.65-2.61,6.31-3.23,8.71-6.07,11.63-1.76,1.82-3.33,2.75-4.15,5.16-.87,2.55.03,4.03.51,8.29.54,4.85-.35,5.38-.1,10.21.15,2.95.59,4.81,2.22,11.22,2.77,10.85,4.15,16.28,4.55,17.29,2.66,6.73,3.76,5.97,8.09,15.67,1.9,4.26,1.59,4.17,4.85,11.93,3.95,9.39,4.33,9.31,5.16,12.34,1.66,6.07,1.43,11.02,1.21,15.57-.41,8.62-2.46,14.96-2.93,16.38-1.71,5.11-2.35,4.56-3.34,8.6-1.17,4.79-.55,6.72-1.72,14.16-.86,5.43-1.21,4.54-1.31,6.88-.12,2.62.24,5.7,4.55,15.78,2.42,5.66,3.63,8.49,4.75,10.21,4.07,6.25,9.06,9.73,12.13,11.83,5.75,3.93,6.76,2.99,17.09,8.6,2.77,1.5,6.99,3.81,12.13,7.28,8.48,5.72,8.16,6.98,13.35,9.51,3.79,1.84,7.28,2.75,14.26,4.55,6.1,1.58,7.22,1.44,10.82,2.93,4.48,1.86,7.83,4.2,9.91,5.66,4.79,3.38,4.39,4.08,8.19,6.47,4.7,2.96,8.94,4.17,11.02,4.75,3.72,1.03,6.37,1.77,9.81,1.52,1.41-.1,3.56-.42,12.74-4.85,7.71-3.73,8.99-4.85,12.24-5.06,3.87-.24,6.76,1.07,9,2.02,17.67,7.56,20.29,4.36,32.87,11.53,1.56.89,5.96,3.8,14.76,9.61,5.82,3.84,8.07,5.39,12.03,7.08,4.57,1.94,5.22,1.43,11.33,3.74,5.77,2.19,9.03,3.43,12.34,6.07,2.8,2.24,4.8,5.47,8.7,11.83,4.6,7.52,4.52,8.72,8.7,15.27,3.81,5.99,4.01,5.19,7.08,10.31,4.17,6.96,3.93,8.64,7.38,13.25,3.42,4.56,6.95,7.32,8.6,8.6,4.85,3.74,6.63,3.58,15.37,8.09,8.65,4.47,13.06,6.79,17.19,11.33,4.34,4.77,6.37,9.52,7.08,11.33.85,2.17,2.32,6.03,2.43,11.12.11,5.46-1.47,6.31-1.42,12.54.02,2.44.07,5.76,1.42,9.51,1.39,3.9,3.46,6.25,7.28,10.52,6.05,6.75,8.49,7.08,10.58,11.93,1.14,2.64.74,3.28,2.16,5.87,2.28,4.15,4.86,5.33,7.08,7.89,2.01,2.31,4.09,6.18,4.25,12.94"/>
  <path class="cls-19" d="M506.76,786.69c1.81-.7,4.53-2.01,7.1-4.44,2.38-2.25,3.44-4.3,5.93-8.56.51-.88,3.43-5.85,6-9.57,4.48-6.48,7.86-11.37,13.89-14.63,3.65-1.98,5.4-1.79,7.69-4.31,1.59-1.75,2.41-3.67,5.53-6.88,1.89-1.94,2.52-2.21,3.1-2.29,2.12-.32,3.27,1.76,6.74,3.78,3.34,1.95,3.63.81,6.74,2.56,3.06,1.72,4.87,3.99,7.82,7.69,2.26,2.84,1.79,2.76,3.91,5.39.58.72,3.11,3.81,7.55,7.69,3.02,2.64,5.05,3.99,6.74,5.26,1.81,1.36,4.14,3.29,12.67,13.21,8,9.3,12,13.95,14.97,18.74,3.22,5.21,5.32,9.82,6.61,12.94"/>
  <path class="cls-19" d="M556.65,735.98c.41-1.25.99-3.15,1.51-5.51.77-3.52.56-4.19,1.21-6.47,1-3.47,2.64-5.89,3.51-7.15,1-1.45,1.65-2.09,5.12-5.66,4-4.12,6-6.19,6.2-6.47,2.59-3.74,1.3-4.94,4.04-11.87.6-1.52,1.97-4.16,4.72-9.44,2.72-5.23,4.08-7.85,4.72-8.9,2.26-3.71,3.1-3.99,12-13.89,1.11-1.24,5.04-5.61,10.52-10.92,2.88-2.79,4.6-4.3,7.28-4.99,2.95-.76,3.4.42,8.9.54,4.19.09,7.65-.51,11.73-1.21,2.76-.48,4.14-.72,5.26-1.08,4.97-1.6,5.65-3.87,11.87-8.09,4.36-2.96,8.37-4.8,11.73-6.34,2.59-1.19,4.82-2.07,6.47-2.7"/>
  <path class="cls-19" d="M564.56,713.89c-2.19-2.09-5.42-5.38-8.83-9.84-2.86-3.74-3.25-4.81-8.36-12.54-5.93-8.96-6.17-8.45-8.22-12.27-1.31-2.44-3.96-7.42-5.53-14.16-1.76-7.55-1.29-13.52-.81-19.15.69-8.03,2.41-14.54,4.45-22.25,2.48-9.39,3.25-9.68,3.37-13.62.21-7.17-2.27-8.42-2.83-17.53-.26-4.23-.57-9.25,1.48-14.97,2.1-5.85,4.15-5.41,6.34-11.46,1.57-4.35,1.72-7.92,2.02-14.97.13-3.07.27-6.71-.27-11.46-.65-5.75-1.5-6.11-1.75-10.52-.15-2.6-.43-7.4,1.48-12.4,2.13-5.56,4.48-4.9,8.22-11.6,3.42-6.12,1.87-7.4,5.39-12.81,2.98-4.57,4.37-4.08,7.28-8.76.79-1.26,3.3-5.5,4.45-11.46,1-5.18.08-7.38,0-15.64-.05-5.07.24-9.17.48-11.76"/>
  <path class="cls-19" d="M673.44,256.88c-1.98-.14-5.74-.13-9.71,1.82-3.68,1.81-5.73,4.4-7.48,6.67-3.22,4.17-4.72,8.32-6.47,13.15-2.1,5.81-1.8,6.93-3.64,9.3-2.38,3.07-4.95,3.88-8.29,5.66-12.41,6.6-15.64,16.09-20.22,14.56-1.12-.38-1.54-1.15-3.24-3.84-7.45-11.83-8.73-10.66-10.52-15.57-2.06-5.67-1.9-7.65-4.04-18.61-1.33-6.77-2.59-13.22-4.85-21.03-3.16-10.91-4.73-16.37-8.09-22.45-2.23-4.05-4.08-6.43-5.06-11.12-.98-4.71-.06-6.78.2-12.74.37-8.49-1.03-15.04-2.22-20.63-1.6-7.48-4-14.25-4.85-16.58-2.22-6.06-2.99-6.78-3.44-10.11-.28-2.09-1.3-9.74,3.03-15.57,1.04-1.4.99-.81,7.08-6.67,3.32-3.19,4.98-4.81,5.26-5.66,1.41-4.35-3.23-7.02-4.25-14.36-.44-3.2.05-5.47,1.01-9.91,2.11-9.71,5.42-10.21,5.87-17.39.27-4.33-.71-7.8,1.01-8.7.8-.42,1.8-.07,3.64.81,3.91,1.87,5.86,2.81,8.49,5.06,4.56,3.88,12.41,3.46,28.11,2.63,6.3-.33,10.55-.56,16.38-1.82,5.95-1.29,9.34-2.74,16.18-3.64,4.28-.56,7.83-.63,10.11-.61"/>
  <path class="cls-19" d="M590.36,77.18c-1.28-.9-3.76-2.9-5.51-6.37-1.56-3.11-1.8-5.95-1.82-7.48"/>
  <path class="cls-19" d="M527.69,62.96c-.99,1.61-2.21,3.84-3.3,6.64-.56,1.43-2.09,5.32-2.63,10.92-.63,6.51.37,6.91-.2,10.31-.85,5.09-3.76,8.33-8.09,13.15-7.43,8.27-11.51,8.2-14.97,15.17-1.85,3.73-.98,4.36-3.03,7.89-2.73,4.7-6.35,7.16-11.53,10.52-12.29,7.97-14.48,8.76-20.83,13.15-5.42,3.74-9.13,6.83-13.55,10.52-9,7.5-13.5,11.25-15.98,15.17-1.93,3.05-3.58,6.62-7.89,12.54-2.28,3.13-3.96,5.09-6.67,6.07-3.4,1.23-4.91-.34-8.09.2-4.24.72-6.86,4.6-11.93,12.34-5.99,9.13-5.73,11.73-10.31,15.37-3.95,3.13-4.82,1.75-9.1,5.06-6.37,4.92-5.22,8.58-10.92,13.15-5.65,4.52-12.03,5.12-13.75,5.26-5.81.47-10.09-1.22-15.17-3.24-7.13-2.82-11.95-6.61-14.56-8.7-.83-.66-1.36-1.12-8.09-7.48-10.46-9.89-9.98-9.56-10.92-10.31-4.97-4.03-10.5-8.52-18.2-9.71-5.57-.86-5.47,1.05-14.36.81-4.08-.11-10.89-.35-17.8-3.44-5.76-2.58-4.71-4.06-11.53-8.29-7.28-4.52-22.02-11.24-31.55-9.3-.71.14-2.36.53-4.04-.2-3.4-1.48-3.68-6.09-5.06-9.71-1.77-4.63-6.71-7.8-16.58-14.16-6.93-4.46-7.84-4.23-19.01-10.72-8.61-5-12.92-7.5-15.37-9.91-7-6.87-5.01-10.3-12.13-19.62-1.69-2.21-7.15-6.96-18-16.38-9.73-8.45-10.96-9.35-16.79-14.56-4.94-4.42-9.04-8.1-14.16-13.15-6-5.92-10.77-11.12-14.16-14.97"/>
  <path class="cls-19" d="M203.53,189.1c-3.48,3.95-6.8,6.87-9.42,8.93-2.71,2.13-5.49,3.88-11.12,7.28-6.1,3.69-9.19,5.54-11.12,6.07-5.15,1.4-6.3-.23-12.74.61-5.15.67-8.7,2.28-13.96,4.65-7.32,3.31-7.85,4.69-14.76,8.29-5.15,2.68-12.16,6.34-21.44,7.89-5.1.85-9.54.7-18.4.4-9.56-.32-10.12-1.05-15.98-1.01-9.49.07-13.21,2.03-22.04,3.44-6.14.98-15.02,1.74-26.29.4"/>
  <path class="cls-19" d="M48.95,512.79c-.45-3.13-1.02-7.6-1.47-13.02-.58-7.08-.36-8.61-.2-9.51.62-3.53,1.8-4.52,6.88-12.94,5.25-8.71,4.86-9.11,7.28-11.93,4.16-4.86,5.74-4.2,9.51-8.29,4.51-4.9,3.43-7.14,8.7-17.39,2.57-5,5.31-10.34,10.31-15.78,2.88-3.13,3.66-3.2,12.94-10.52,8.27-6.52,12.4-9.78,16.79-13.96,9.83-9.36,8.03-10.35,14.56-15.17,1.19-.88,3.97-2.86,6.07-6.47.68-1.17,3.48-6.02,1.62-9.3-.95-1.67-2.53-1.91-4.85-3.03-4.12-1.98-5.7-4.37-9.51-8.29-6.75-6.95-8.27-6.14-15.37-12.94-5.49-5.26-8.82-9.82-12.74-15.17-8.26-11.29-7.19-12.92-12.94-20.02-3.35-4.14-2.7-2.33-19.42-16.99-17.12-15.01-16.16-15.46-21.24-18.61-2.73-1.69-5.62-3.17-8.09-6.67-2.36-3.34-2.53-5.94-5.46-8.9-2.11-2.13-4.45-3.24-6.07-3.84"/>
  <path class="cls-19" d="M396.56,813.26c-.82-1.61-2.22-4.04-4.45-6.57-2.7-3.07-4.28-3.79-8.8-7.38-4.53-3.61-7.56-6.89-9.3-8.8-3.35-3.67-5.23-5.73-6.98-9.1-1.69-3.27-2.3-5.94-3.44-11.02-1.23-5.52-1.46-8.39-2.02-11.73-1.57-9.38-3.54-9.49-6.98-22.04-1.43-5.21-2.9-10.7-3.44-18.2-.23-3.22-.57-8.31.4-14.87.55-3.72,1.55-7.03,3.54-13.65,2.52-8.36,3.7-10.37,4.45-11.53,1.34-2.06,3.22-3.87,6.98-7.48,6.11-5.88,7.13-5.93,10.52-9.81,3.53-4.04,2.76-4.36,5.66-7.28,2.54-2.55,4.3-3.47,10.72-7.58,2.21-1.42,5.57-3.59,9.71-6.37"/>
  <path class="cls-19" d="M285.12,813.26c.45-1.46,1.31-3.59,3.03-5.66,1.59-1.91,3.3-3.01,6.47-4.75,7.05-3.86,7.55-3.31,10.52-5.26,3.04-2,2.35-2.48,8.8-8.9,2.85-2.84,2.67-2.43,9.1-8.49,4.07-3.83,6.1-5.75,7.99-7.69,5.45-5.58,8.18-8.37,10.01-11.53,2.13-3.66,3-6.66,5.66-9.51.18-.19,1.76-1.87,3.94-4.04.88-.88,1.62-1.6,2.12-2.08"/>
  <path class="cls-19" d="M331.63,771.89c1.87,3.09,2.05,5.41,1.83,6.98-.2,1.44-.69,2.04-.4,3.24.19.81.76,1.98,4.35,4.15,3.3,2,4.03,1.74,6.07,3.13,1.9,1.3,2.91,2.64,4.65,4.96,1.41,1.87,3.4,4.56,4.85,8.6,1.46,4.04,1.75,7.69,1.72,10.31"/>
  <path class="cls-19" d="M342.41,745.15c-.31-5.37-1.61-7.13-2.88-7.64-.97-.39-3.04-.61-4.65-1.82-1.43-1.07-1.12-1.91-2.33-2.93-1.87-1.58-3.86-.67-6.67-1.11-3.69-.58-3.93-2.72-8.7-5.36-2.85-1.58-5.27-2.13-10.11-3.24-7.39-1.69-8.1-.59-12.34-2.33-2.52-1.03-6-2.46-8.7-5.87-2.52-3.18-2.51-5.74-4.85-6.47-2.28-.71-3.43,1.35-6.17,1.11-3.12-.27-4.87-3.23-7.38-6.37-4.04-5.05-4.38-3.5-11.22-10.52-5.65-5.79-9.16-10.68-13.25-16.38-1.44-2-7.22-10.15-13.65-22.04-3.57-6.6-5.35-9.9-6.27-12.94-2.6-8.61-1.7-15.83-.51-25.48,1.27-10.21,3.39-15.88,2.22-26.6-.2-1.8-.43-3.28-.61-4.25"/>
  <path class="cls-19" d="M277.55,463.26c.24,3.7.5,6.69.7,8.71.5,5.09.77,6.46.1,8.6-.71,2.27-1.52,2.22-3.64,5.76-1.84,3.07-2.73,5.61-3.74,8.49-1.48,4.23-2.3,6.57-2.53,9.81-.38,5.46,1.2,9.67,1.92,11.53,1.89,4.88,4.55,7.83,8.6,12.24,5.67,6.17,6.77,5.64,12.34,11.53,2.79,2.96,6.54,6.98,10.01,13.15,1.49,2.64,3.95,7.1,5.46,13.35,1.64,6.8.11,7.3,2.02,15.37.72,3.04,1.63,5.87,3.44,11.53,1.01,3.15,1.89,5.75,2.52,7.56"/>
  <path class="cls-19" d="M178.88,812.11c.32-1.4.81-3.48,1.48-6,.98-3.63,1.44-4.83,1.96-6.94.5-2.08,1.06-5.08,1.17-8.88"/>
  <path class="cls-19" d="M181.6,801.76c3.08.94,6.91,2.42,11.03,4.76,3.93,2.24,7.04,4.66,9.37,6.74"/>
  <path class="cls-19" d="M403.97,639.71c3.85-8.58,5.22-15.79,5.74-20.88,1.22-11.92.4-22.92.4-22.92-.35-4.64-.83-7.51.27-11.73,1.38-5.31,4.36-9.27,5.93-11.33,4.43-5.8,5.82-4.4,7.55-7.96,2.87-5.9,1.01-13.81-.27-19.28-.41-1.74-.88-3.32-.94-5.8-.1-4.23,1.09-7.2,1.75-9.3,1.81-5.72,1.48-10.73,1.21-14.97-.65-10.23-5.97-17.73-9.17-22.25-2.37-3.35-1.7-1.67-13.08-13.62-6.28-6.59-8-8.7-18.07-19.42-3.78-4.02-5.94-4.5-7.01-7.42-1.97-5.4.69-11.46,3.24-17.26,2.64-6.01,3.67-5.79,5.39-9.98,2.51-6.13.95-8.17,1.62-20.9.78-14.74,3.25-19.08-.27-24.67-1.14-1.81-2.36-2.9-3.1-5.53-1.17-4.18.35-7.07,1.75-12.4,2.29-8.7,3.74-14.22,1.21-18.61-2.17-3.77-5.58-3.71-7.42-8.76-.36-.99-1.19-3.36-.54-6.07.79-3.28,3.33-5.22,4.18-5.93,6.78-5.63,9.35-17.93,10.11-21.57,1.86-8.9-1.3-8.42-.67-25.89.06-1.76.19-4.3-.94-7.28-1.83-4.83-5.39-6.72-9.3-9.98-8.96-7.46-14.18-17.44-12.99-18.66.49-.51,1.86.71,5.57,1.81,3.02.89,5.2,1,9.3,1.21,14.33.75,11.93.75,14.83.81,11.65.23,10.97-.56,14.97.13,6.4,1.11,6.66,2.89,14.16,4.85,8.82,2.31,9.19.05,16.18,2.16,2.86.86,11.41,3.44,17.39,10.79,2.54,3.12,3.29,5.47,7.01,8.22,1.2.89,4.21,3.07,8.49,3.91,5.32,1.04,9.67-.56,16.31-3.1,7.56-2.89,6.86-4.01,11.19-4.99,7-1.58,13.08.37,16.99,1.62,4.85,1.55,3.85,2.15,15.78,7.82,6.77,3.22,8.04,3.48,11.33,5.66,1.91,1.27,2.49,1.85,9.71,8.22,8.88,7.84,10.08,8.78,11.33,9.71,3.36,2.51,6.61,4.89,11.33,7.01,1.19.54,5.53,2.42,12.27,3.64,8.01,1.45,11.87.58,22.92.66,3.84.03,9.52.18,16.49.78"/>
  <path class="cls-16" d="M27.06,452.6c1.56-1.05,2.88-1.8,3.79-2.28.27-.14.51-.26,2.93-1.47,2.71-1.35,2.82-1.4,3.08-1.62.73-.62.92-1.12,2.22-3.99,1.78-3.92,2-4.24,2.48-4.55,1.37-.89,2.26,0,4.7-.46.34-.06,4.69-.91,5.46-3.32.73-2.27-2.55-3.32-3.91-8.36-.85-3.13.12-3.84-1.08-7.01-1.16-3.06-2.4-3.28-2.29-4.99.16-2.73,3.37-2.86,4.45-6.47.72-2.39-.42-3.23.67-5.39.19-.38,1.28-2.44,3.51-3.24,2.17-.78,3.01.51,4.99-.27,2.15-.85,1.88-2.66,3.78-3.24,2.22-.68,3.32,1.58,5.66,1.08,2.4-.52,2.09-3.08,4.85-4.31,2.93-1.31,5.16.73,6.74-.81,1.04-1.01,1.25-3.03.54-4.31-1.03-1.88-3.41-1.1-4.72-3.1-1.08-1.65.03-2.98-1.08-4.04-1.31-1.27-3.28.19-5.12-1.08-1.09-.76-1.97-2.36-1.75-3.78.46-2.99,5.42-2.58,7.01-6.47.51-1.25.97-3.67.13-5.93-.55-1.47-1.39-2.2-1.08-3.24.38-1.27,1.91-1.07,2.7-2.43.94-1.62-.68-2.87-.27-4.99.54-2.81,3.77-2.55,5.26-5.66,1.27-2.66-.7-3.66.13-7.55.71-3.34,2.35-3.51,4.04-7.82,1.6-4.06.29-4.27,1.62-7.01,2.27-4.7,6.04-3.98,9.3-9.44,1.65-2.77.78-3.12,2.29-4.99,2.94-3.64,6-1.98,11.06-5.39,3.61-2.44,3.19-4.05,7.82-6.88,1.11-.68,2.76-1.67,5.12-2.43,3.8-1.22,4.94-.39,7.42-1.35,3.4-1.31,2.68-3.42,6.47-6.34,2.03-1.56,5.4-2.61,12.13-4.72,5.35-1.67,5.97-1.59,7.15-2.7,2.77-2.6,3.83-7.31,2.7-11.06-.87-2.85-2.28-2.73-3.1-5.66-.72-2.56.13-3.47.94-9.17.81-5.69,1.21-8.54.13-11.87-.8-2.46-1.61-2.81-1.48-4.45.24-3.05,3.22-3.81,5.26-7.28,1.97-3.35.07-4.12,1.62-9.03,2.18-6.92,6.58-7.45,7.01-13.35.13-1.77-.17-3.03.81-4.18,1.13-1.32,3.11-1.49,6.74-1.75,3.76-.27,4.32.18,5.53-.54,1.15-.69,1.35-1.52,3.24-5.39,1.69-3.48,2.54-5.22,3.1-5.66,2.94-2.34,6.2.72,9.44-1.21,3.55-2.12,4.79-8.86,2.43-11.73-1.72-2.09-4.12-.66-6.88-3.24-2.22-2.08-1.3-3.6-3.78-6.07-2.26-2.25-5.02-2.97-6.07-3.24-2.79-.7-3.04.17-6.07-.4-3.46-.66-3.63-1.88-7.55-2.83-3.62-.88-3.83.08-5.53-.81-3.57-1.87-2.15-5.86-5.8-8.49-2.7-1.95-4.14-.24-7.55-2.7-1.96-1.41-2.15-2.46-4.45-3.64-2.5-1.29-3.2-.53-4.45-1.62-2.26-1.98-.46-4.91-2.7-7.28-1.81-1.93-3.8-.85-4.99-2.7-.91-1.41-.19-2.74.27-6.88.37-3.33,0-3.29.27-6.34.62-6.86,2.54-7.35,2.56-12.27.02-4.99-1.95-5.21-1.08-8.22.72-2.47,2.2-2.86,7.82-8.76,2.67-2.81,4.02-4.23,4.31-5.26,1.08-3.73-1.8-6.41-4.58-13.08-1.01-2.43-2.29-6.05-3.1-10.79"/>
  <path class="cls-15" d="M544,810.56c-2.43-1.73-6.45-4.24-11.87-5.93-6.31-1.98-8.33-.91-21.03-2.16-7.47-.73-7.71-1.2-19.15-2.43-8.57-.92-7.61-.57-11.33-1.08-13.74-1.87-15.11-5.03-29.39-7.55-8.46-1.49-10.22-.78-15.64-2.97-6.22-2.5-6.98-4.68-11.6-5.12-7-.68-10.18,3.86-14.02,1.62-1.19-.69-2.5-3.07-5.12-7.82-2.31-4.19-2.7-5.61-4.31-6.2-2.35-.85-3.91,1.31-7.01,1.89-3.98.75-7.26-1.72-14.29-7.01-9.46-7.12-14.23-10.7-15.91-11.87-8.15-5.65-12.22-8.47-16.72-8.9-5.43-.52-6.81,1.63-14.56.81-4.73-.5-5.73-1.46-9.71-1.35-4.99.15-6.48,1.75-11.33,2.97-6.65,1.68-12.18.76-19.96-.54-9.38-1.56-8.51-3.13-14.29-3.24-2.27-.04-10.69-.19-18.34,4.85-3.81,2.52-4.09,4.12-8.09,5.93-4.72,2.14-6.99,1.12-11.33,2.16-5.83,1.4-7.63,4.67-16.18,12.13-2.51,2.19-8.6,7.51-15.1,11.6-4.95,3.11-15.2,9.57-28.58,10.25-2.23.11-1.41-.09-22.92-3.51-14.8-2.35-17.16-2.56-21.84-4.31-4.25-1.59-11.22-4.2-17.53-10.25-7.59-7.28-5.67-11.36-14.56-24-6.15-8.74-9.34-13.28-15.64-16.45-3.24-1.63-3.24-.86-25.08-5.93-7-1.63-8.8-2.13-11.33-3.24-6.01-2.64-7.97-5.17-13.21-6.74-4.38-1.31-8.3-1.13-10.79-.81"/>
  <circle class="cls-18" cx="371.32" cy="447.06" r="3.55"/>
  <circle class="cls-18" cx="354.7" cy="745.35" r="3.55"/>
  <circle class="cls-18" cx="371.32" cy="239.24" r="3.55"/>
  <circle class="cls-18" cx="202.07" cy="184" r="3.55"/>
  <circle class="cls-18" cx="170.25" cy="796.12" r="3.55"/>
  <text class="cls-35" transform="translate(390.05 244.84)"><tspan class="cls-6" x="0" y="0">О</tspan><tspan class="cls-3" x="14.53" y="0">рел</tspan></text>
  <text class="cls-35" transform="translate(314.74 447.06)"><tspan class="cls-21" x="0" y="0">К</tspan><tspan x="11.92" y="0">урск</tspan></text>
  <text class="cls-35" transform="translate(268.38 762.85)"><tspan class="cls-1" x="0" y="0">Х</tspan><tspan x="12.28" y="0">арь</tspan><tspan class="cls-24" x="40.76" y="0">к</tspan><tspan x="50.63" y="0">ов</tspan></text>
  <text class="cls-35" transform="translate(84.4 801.2)"><tspan class="cls-8" x="0" y="0">П</tspan><tspan class="cls-37" x="13.3" y="0">о</tspan><tspan x="23.57" y="0">лтава</tspan></text>
  <circle class="cls-20" cx="208.07" cy="466.34" r="4.65"/>
  <circle class="cls-20" cx="49.71" cy="508.15" r="4.65"/>
  <circle class="cls-20" cx="158.38" cy="524.72" r="4.65"/>
  <circle class="cls-20" cx="208.07" cy="574.47" r="4.65"/>
  <circle class="cls-20" cx="263.74" cy="530.79" r="4.65"/>
  <circle class="cls-20" cx="175.91" cy="630.02" r="4.65"/>
  <circle class="cls-20" cx="140.31" cy="664" r="4.65"/>
  <path class="cls-20" d="M214.14,682.2c0-2.57,2.08-4.65,4.65-4.65s4.65,2.08,4.65,4.65c0,2.57-2.08,4.65-4.65,4.65s-4.65-2.08-4.65-4.65Z"/>
  <circle class="cls-20" cx="281.78" cy="704.45" r="4.65"/>
  <circle class="cls-20" cx="299.42" cy="654.71" r="4.65"/>
  <circle class="cls-20" cx="331.15" cy="691.51" r="4.65"/>
  <circle class="cls-20" cx="370.39" cy="617.68" r="4.65"/>
  <circle class="cls-20" cx="440.99" cy="688.27" r="4.65"/>
  <circle class="cls-20" cx="404.85" cy="765.93" r="4.65"/>
  <circle class="cls-20" cx="504.63" cy="786.01" r="4.65"/>
  <circle class="cls-20" cx="563.61" cy="704.45" r="4.65"/>
  <circle class="cls-20" cx="445.3" cy="428.89" r="4.65"/>
  <circle class="cls-20" cx="577.57" cy="441.43" r="4.65"/>
  <circle class="cls-20" cx="616.4" cy="309.21" r="4.65"/>
  <circle class="cls-20" cx="409.51" cy="338.89" r="4.65"/>
  <circle class="cls-20" cx="389.97" cy="353.97" r="4.65"/>
  <circle class="cls-20" cx="394.61" cy="292.94" r="4.65"/>
  <circle class="cls-20" cx="498.7" cy="122.79" r="4.65"/>
  <circle class="cls-20" cx="571.58" cy="147.87" r="4.65"/>
  <circle class="cls-20" cx="382.86" cy="101.15" r="4.65"/>
  <circle class="cls-20" cx="365.75" cy="159.34" r="4.65"/>
  <circle class="cls-20" cx="262.88" cy="115.3" r="4.65"/>
  <circle class="cls-20" cx="427.3" cy="191.01" r="4.65"/>
  <circle class="cls-20" cx="302.55" cy="207.12" r="4.65"/>
  <circle class="cls-20" cx="262.88" cy="211.77" r="4.65"/>
  <circle class="cls-20" cx="313.44" cy="239.24" r="4.65"/>
  <circle class="cls-20" cx="334.07" cy="283.65" r="4.65"/>
  <circle class="cls-20" cx="210.26" cy="254.04" r="4.65"/>
  <circle class="cls-20" cx="190.47" cy="277.1" r="4.65"/>
  <circle class="cls-20" cx="103.1" cy="229.92" r="4.65"/>
  <circle class="cls-20" cx="268.38" cy="312.84" r="4.65"/>
  <circle class="cls-20" cx="198.16" cy="369.21" r="4.65"/>
  <circle class="cls-20" cx="73.17" cy="726.54" r="4.65"/>
  <text class="cls-11" transform="translate(171.26 582.46)"><tspan x="0" y="0">Сумы</tspan></text>
  <text class="cls-11" transform="translate(109.09 540)"><tspan x="0" y="0">Ворожба</tspan></text>
  <text class="cls-11" transform="translate(58.32 508.15)"><tspan x="0" y="0">Конотоп</tspan></text>
  <text class="cls-35" transform="translate(133.89 187.55)"><tspan class="cls-7" x="0" y="0">Б</tspan><tspan class="cls-4" x="11.38" y="0">р</tspan><tspan class="cls-3" x="21.58" y="0">янск</tspan></text>
  <text class="cls-11" transform="translate(62.49 719.36)"><tspan x="0" y="0">Миргород</tspan></text>
  <text class="cls-11" transform="translate(113.95 625.84)"><tspan x="0" y="0">Лебедин</tspan></text>
  <text class="cls-11" transform="translate(93.23 659.35)"><tspan x="0" y="0">Веприн</tspan></text>
  <text class="cls-11" transform="translate(203.42 696.15)"><tspan x="0" y="0">Ахтырка</tspan></text>
  <text class="cls-32" transform="translate(266.53 667.35)"><tspan x="0" y="0">Грайворон</tspan></text>
  <text class="cls-11" transform="translate(309.5 683.62)"><tspan x="0" y="0">Золочев</tspan></text>
  <text class="cls-11" transform="translate(301.84 628.71)"><tspan x="0" y="0">Томаровка</tspan></text>
  <text class="cls-11" transform="translate(290.08 713.89)"><tspan x="0" y="0">Боголухов</tspan></text>
  <text class="cls-11" transform="translate(451.39 788.07)"><tspan x="0" y="0">Купянск</tspan></text>
  <text class="cls-11" transform="translate(510.22 715.14)"><tspan x="0" y="0">Валуйки</tspan></text>
  <text class="cls-11" transform="translate(440.99 680.91)"><tspan x="0" y="0">Волчанск</tspan></text>
  <circle class="cls-18" cx="403.13" cy="638.92" r="3.55"/>
  <text class="cls-12" transform="translate(418.4 640.06)"><tspan x="0" y="0">Бел</tspan><tspan class="cls-40" x="21.45" y="0">г</tspan><tspan class="cls-39" x="26.46" y="0">ор</tspan><tspan class="cls-37" x="40.33" y="0">о</tspan><tspan x="47.17" y="0">д</tspan></text>
  <circle class="cls-20" cx="418.67" cy="569.89" r="4.65"/>
  <circle class="cls-20" cx="375.04" cy="534.01" r="4.65"/>
  <text class="cls-11" transform="translate(428.04 572.31)"><tspan x="0" y="0">Прохоровка</tspan></text>
  <text class="cls-11" transform="translate(381.39 531.02)"><tspan x="0" y="0">Обоянь</tspan></text>
  <text class="cls-11" transform="translate(230.72 524.72)"><tspan x="0" y="0">Суджа</tspan></text>
  <circle class="cls-20" cx="271.17" cy="456.67" r="4.65"/>
  <text class="cls-11" transform="translate(275.82 448.1)"><tspan x="0" y="0">Льгов</tspan></text>
  <text class="cls-11" transform="translate(158.94 470.98)"><tspan x="0" y="0">Рыльск</tspan></text>
  <text class="cls-11" transform="translate(158.38 372.15)"><tspan x="0" y="0">Севск</tspan></text>
  <text class="cls-11" transform="translate(135.67 311.11)"><tspan x="0" y="0">Дмитровск-Орловский</tspan></text>
  <text class="cls-11" transform="translate(128.7 279.01)"><tspan x="0" y="0">Алтухово</tspan></text>
  <text class="cls-11" transform="translate(169.59 254.04)"><tspan x="0" y="0">Навля</tspan></text>
  <text class="cls-11" transform="translate(80.59 222.44)"><tspan x="0" y="0">Почел</tspan></text>
  <text class="cls-11" transform="translate(246.7 130.87)"><tspan x="0" y="0">Щигры</tspan></text>
  <g>
    <path class="cls-14" d="M275.5,223.72h-1.5l-3.05-4.28-1.34,1.31v2.98h-1.14v-8.59h1.14v4.26l4.19-4.26h1.54l-3.6,3.53,3.76,5.06Z"/>
    <path class="cls-14" d="M280.28,223.09c-.56.52-1.29.79-2.17.79-.62,0-1.12-.17-1.52-.5s-.6-.76-.6-1.29c0-1.45,1.25-2.18,3.76-2.18h.54c0-.45-.02-.77-.07-.97s-.18-.37-.39-.5-.56-.2-1.03-.2c-.98,0-1.49.35-1.52,1.05h-1.1c.08-1.28.98-1.92,2.68-1.92.8,0,1.42.16,1.86.47s.67.94.67,1.86v4.02h-1.1v-.64ZM280.28,222.09v-1.38h-.76c-1.6,0-2.4.44-2.4,1.31,0,.32.12.56.35.73s.55.25.95.25c.36,0,.71-.08,1.05-.25s.61-.39.8-.67Z"/>
    <path class="cls-14" d="M284.12,218.25c.49-.59,1.08-.88,1.78-.88.81,0,1.44.29,1.89.86s.67,1.35.67,2.33-.25,1.83-.75,2.42-1.13.89-1.88.89c-.67,0-1.24-.21-1.7-.63v2.87h-1.11v-8.61h1.11v.74ZM284.12,222.25c.47.5,1.02.76,1.63.76.48,0,.86-.2,1.14-.61s.42-1.02.42-1.83c0-.77-.13-1.35-.4-1.74s-.64-.59-1.11-.59c-.61,0-1.17.36-1.68,1.07v2.95Z"/>
    <path class="cls-14" d="M293.63,223.09c-.56.52-1.29.79-2.17.79-.62,0-1.12-.17-1.52-.5s-.6-.76-.6-1.29c0-1.45,1.25-2.18,3.76-2.18h.54c0-.45-.02-.77-.07-.97s-.18-.37-.39-.5-.56-.2-1.03-.2c-.98,0-1.49.35-1.52,1.05h-1.1c.08-1.28.98-1.92,2.68-1.92.8,0,1.42.16,1.86.47s.67.94.67,1.86v4.02h-1.1v-.64ZM293.63,222.09v-1.38h-.76c-1.6,0-2.4.44-2.4,1.31,0,.32.12.56.35.73s.55.25.95.25c.36,0,.71-.08,1.05-.25s.61-.39.8-.67Z"/>
    <path class="cls-14" d="M296.1,219.34v-1.83h1.11v1.66c0,.55.1.93.3,1.15s.55.33,1.05.33c.45,0,.94-.11,1.48-.34v-2.81h1.1v6.22h-1.1v-2.51c-.55.2-1.13.3-1.73.3-1.46,0-2.2-.72-2.2-2.17Z"/>
    <path class="cls-14" d="M305.4,223.87c-.91,0-1.65-.29-2.2-.86s-.83-1.37-.83-2.39.27-1.81.81-2.39,1.24-.86,2.11-.86,1.59.28,2.12.85.79,1.37.79,2.4v.26h-4.68c.05.72.25,1.25.59,1.6s.78.52,1.29.52c.39,0,.74-.1,1.05-.3s.47-.48.49-.84h1.14c-.09.64-.38,1.13-.87,1.48s-1.1.52-1.81.52ZM307.03,220.02c-.09-.6-.29-1.04-.6-1.34s-.7-.45-1.15-.45-.82.15-1.14.44-.52.74-.6,1.34h3.49Z"/>
    <path class="cls-14" d="M312.34,223.72h-2.91v-6.22h2.52c1.53,0,2.3.55,2.3,1.65,0,.65-.27,1.1-.81,1.34.72.22,1.08.71,1.08,1.49,0,.53-.2.95-.59,1.27s-.92.47-1.6.47ZM310.54,218.38v1.74h1.31c.46,0,.79-.07.99-.2s.3-.36.3-.67-.1-.52-.31-.66-.56-.21-1.06-.21h-1.22ZM310.54,220.98v1.89h1.45c.93,0,1.39-.31,1.39-.94s-.5-.95-1.49-.95h-1.35Z"/>
  </g>
  <text class="cls-11" transform="translate(248.99 235.69)"><tspan x="0" y="0">Городище</tspan></text>
  <text class="cls-11" transform="translate(308.79 207.12)"><tspan x="0" y="0">Хотынец</tspan></text>
  <text class="cls-11" transform="translate(318.08 166.34)"><tspan x="0" y="0">Болхов</tspan></text>
  <text class="cls-11" transform="translate(353.73 92.39)"><tspan x="0" y="0">Белов</tspan></text>
  <text class="cls-11" transform="translate(449.23 123.46)"><tspan x="0" y="0">Плавск</tspan></text>
  <text class="cls-11" transform="translate(435.19 190)"><tspan x="0" y="0">Мценск</tspan></text>
  <text class="cls-11" transform="translate(579.04 150.7)"><tspan x="0" y="0">Волово</tspan></text>
  <text class="cls-11" transform="translate(592.54 322.52)"><tspan x="0" y="0">Елец</tspan></text>
  <text class="cls-10" transform="translate(404.86 330.67)"><tspan class="cls-38" x="0" y="0">М</tspan><tspan class="cls-26" x="9.7" y="0">а</tspan><tspan x="15.55" y="0">лоа</tspan><tspan class="cls-25" x="34.01" y="0">р</tspan><tspan x="40.68" y="0">хан</tspan><tspan class="cls-41" x="58.57" y="0">г</tspan><tspan class="cls-2" x="62.95" y="0">е</tspan><tspan x="69.02" y="0">льск</tspan></text>
  <text class="cls-10" transform="translate(431.94 420.49)"><tspan x="0" y="0">Щи</tspan><tspan class="cls-31" x="17.02" y="0">г</tspan><tspan class="cls-23" x="21.55" y="0">ры</tspan></text>
  <text class="cls-10" transform="translate(401.99 356.79)"><tspan x="0" y="0">Поныри</tspan></text>
  <text class="cls-10" transform="translate(584.55 443.52)"><tspan class="cls-22" x="0" y="0">К</tspan><tspan class="cls-39" x="6.65" y="0">а</tspan><tspan class="cls-34" x="12.43" y="0">с</tspan><tspan class="cls-9" x="18" y="0">т</tspan><tspan x="22.69" y="0">орное</tspan></text>
  <text class="cls-10" transform="translate(289.69 283.65)"><tspan x="0" y="0">Кромы</tspan></text>
  <text class="cls-10" transform="translate(346.3 288.3)"><tspan x="0" y="0">Змиев</tspan><tspan class="cls-27" x="32.23" y="0">к</tspan><tspan class="cls-23" x="38.1" y="0">а</tspan></text>
  <text class="cls-10" transform="translate(410.35 781.85)"><tspan class="cls-28" x="0" y="0">Ч</tspan><tspan x="7.13" y="0">у</tspan><tspan class="cls-29" x="12.78" y="0">г</tspan><tspan class="cls-30" x="17.57" y="0">у</tspan><tspan x="23.11" y="0">ев</tspan></text>
  <text class="cls-13" transform="translate(45.06 402) rotate(-32.71)"><tspan class="cls-33" x="0" y="0">Д</tspan><tspan x="4.99" y="0">есна</tspan></text>
  <text class="cls-13" transform="translate(57.29 487.23) rotate(-32.71)"><tspan class="cls-36" x="0" y="0">С</tspan><tspan x="4.51" y="0">ейм</tspan></text>
  <text class="cls-13" transform="translate(443.42 508.3) rotate(7.56)"><tspan class="cls-36" x="0" y="0">С</tspan><tspan x="4.51" y="0">ейм</tspan></text>
  <text class="cls-13" transform="translate(399.26 127.43)"><tspan x="0" y="0">О</tspan><tspan class="cls-5" x="5.51" y="0">к</tspan><tspan x="9.42" y="0">а</tspan></text>
</svg>