<?xml version="1.0" encoding="UTF-8"?>
<svg id="_Слой_8" data-name="Слой 8" xmlns="http://www.w3.org/2000/svg" viewBox="0 0 700 931">
  <defs>
    <style>
      .cls-1 {
        fill: none;
        stroke: #2d4697;
        stroke-miterlimit: 10;
      }
    </style>
  </defs>
  <path class="cls-1" d="M85.57,64.27h-12.54c4.83,1.51,11.35,3.4,19.15,5.26,6.35,1.51,14.63,3.26,27.1,5.12,16.65,2.49,16.06,1.49,43.28,4.72,15.59,1.85,23.39,2.78,31.69,4.31,3.38.63,7.25,1.4,13.08,2.16,10.55,1.36,12.67.73,19.42,1.62,11.65,1.53,20.46,5.39,24.67,7.28,11.08,4.96,10.72,7.42,19.55,10.25,7.7,2.46,14.19,2.58,20.9,2.7,3.9.07,3.71-.15,22.65-1.48,11.49-.81,14.52-.93,19.01-.4,3.8.45,8.94,1.05,14.7,3.64,2.49,1.12,6.02,3.02,16.31,12.94,8.68,8.37,13.02,12.55,16.99,18.07,4.75,6.6,4.37,8.04,11.73,19.82.96,1.54,5.28,8.43,9.57,14.29,12.53,17.13,19.41,18.17,32.09,35.73,5.19,7.19,8.34,12.97,8.09,19.96-.15,4.25-1.52,7.86-2.83,11.33-.83,2.18-3.31,8.29-8.76,15.1-4.12,5.14-5.35,4.95-10.79,10.92-3.75,4.11-5.99,7.29-10.11,13.21-10.84,15.55-8.53,15.37-13.75,21.17-5.79,6.43-6.12,3.87-19.15,15.64-3.86,3.49-5.99,5.66-10.11,7.42-6.58,2.79-12.83,2.23-14.83,2.02-6.8-.69-6.65-2.87-14.97-4.04-5.3-.75-6.46-.03-11.73-1.08-5.02-1-8.41-2.55-10.38-3.37-8.32-3.45-16.23-4.21-24.27-4.99-3.32-.32-17.28-1.49-34.92,2.83-9.36,2.29-18.46,4.52-28.31,11.46-10.74,7.56-16.24,16.4-20.63,23.46-4.43,7.12-11.37,18.53-13.21,34.52-1.16,10.08.02,19.15,1.08,27.24.61,4.65,1.26,7.98,2.83,15.51,6.01,28.72,9.01,43.08,12.94,54.88,3.5,10.49,4.4,10.9,5.93,17.66,1.63,7.2,1.93,12.61,2.29,30.47.48,23.51.14,23.52.81,29.26,2.24,19.27,6.76,25.65,10.25,29.12,2.84,2.83,6.48,5.2,8.22,6.34.32.21,7.54,4.86,15.37,7.42,10.01,3.27,16.14,1.51,31.15,1.21,2.02-.04,10.78.42,28.31,1.35,25.88,1.37,33.34,2.13,40.45,3.1,1.53.21,9.07,1.25,18.88,3.37,1.91.41,10.21,2.24,20.36,6.07,5.4,2.03,7.67,3.26,9.84,5.39,4.27,4.19,5.46,9.26,5.8,10.79.7,3.14.3,4.52-.94,14.43-1.62,12.88-1.55,15.32-.81,18.2.82,3.21,2.08,5.45,4.18,9.17,4.14,7.35,6.36,7.79,8.22,12.54,1.4,3.57,1.3,6.87,1.08,13.48-.24,7.24-1.23,8.45-2.16,18.07-.84,8.63-1.25,12.94,0,15.91,1.09,2.59,3.34,6.06,7.28,12.13,1.22,1.88,2.16,3.26,2.43,5.39.54,4.28-2.09,7.82-2.7,8.63-2.56,3.43-5.88,4.69-17.12,7.96-13.37,3.88-12.23,3.13-16.58,4.72-7.09,2.58-7.22,3.5-17.26,7.42-7.27,2.83-7.79,2.58-9.3,4.04-6.52,6.33-4.39,18.42-4.18,19.55.44,2.31,1.1,4.15,1.62,5.39h3.91c-1.83-4.47-5.08-14.31-.4-21.3.73-1.09,2.54-3.45,17.66-9.03,6.52-2.41,7.38-2.42,22.11-7.42,20.96-7.11,4.35-2.06,14.97-5.8,5.09-1.79,7.31-2.39,9.03-4.72,3.13-4.23,1.66-10.17,1.21-12-1.83-7.43-6.06-7.35-8.76-14.83-1.99-5.5-1.49-10.5-.94-15.91.79-7.88,2.6-8.29,3.24-15.37.32-3.55.95-10.5-2.02-17.8-2.64-6.49-5.4-6.52-10.31-16.58-2.6-5.32-3.11-7.93-3.3-9.17-.66-4.16.07-6.47,1.01-13.01,1.26-8.78,1.9-13.17,1.21-16.25-1.5-6.74-6.98-10.86-10.92-13.75-10.19-7.46-20.88-9.36-31.75-10.92-17.56-2.52-31.88-3.61-67.35-5.87-12.19-.77-18.33-1.16-20.43-1.21-13.18-.31-16.87.51-24.67-1.21-4.93-1.09-11.05-2.44-17.39-7.08-9.49-6.95-12.94-16.48-13.96-19.42-1.52-4.39-1.82-9.06-2.43-18.4-.14-2.14-.63-10.27-.2-22.25.42-11.74,1.19-12.36.81-18-.41-6.04-1.53-8.93-5.06-20.63,0,0-4.64-15.39-9.71-34.58-.48-1.82-2.47-9.38-4.85-19.42-2.57-10.83-3.86-16.24-4.45-20.43-1.01-7.12-1.14-13.38-1.42-25.89-.17-7.66-.25-11.49,0-13.55.31-2.55,1.69-12.02,11.93-26.09,6.61-9.08,17.86-24.53,38.63-32.36,11.71-4.41,21.69-4.61,33.78-4.85,13.33-.27,20-.4,27.3,2.63,4.26,1.77,8.52,4.41,15.98,5.46,3.89.55,5.17.17,10.31,1.01,6.05.98,6.9,1.93,12.54,3.03,5.02.98,9.65,1.89,14.76,1.01,4.36-.75,7.55-2.8,13.75-6.88,9.88-6.49,16.26-13.07,18.61-15.57,4.61-4.93,7.59-9.08,9.91-12.34,8.18-11.48,7.43-14.07,13.96-21.64,4.82-5.6,5.35-4.33,11.73-11.53,4.48-5.06,8.21-9.33,11.12-15.78,1.48-3.28,3.98-8.79,4.04-15.98.11-11.88-6.48-20.73-10.92-26.7-1.61-2.17-1.4-1.62-13.75-14.36-13.68-14.12-15.51-16.41-16.99-18.4-3.68-4.94-6.09-9.16-10.92-17.6-6-10.48-5.64-11.22-8.9-15.78-2.97-4.15-7.08-7.94-15.17-15.37-10.54-9.68-15.91-14.56-20.63-16.58-5.98-2.57-10.68-2.8-19.82-3.24-14.39-.69-17.46,1.88-33.98,1.82-9.13-.03-14.36-.09-21.24-2.02-8.5-2.39-8.74-4.61-20.43-9.91-4.13-1.87-15.38-6.71-29.93-9.51-3.23-.62-8.96-1.29-20.43-2.63-10.74-1.26-12.28-1.26-20.22-2.22-12.87-1.57-12.7-2.04-23.87-3.44-13.89-1.74-13.95-.99-29.12-2.83-12.32-1.5-20.29-2.79-22.85-3.24-7.06-1.22-13.01-2.45-17.46-3.44-1.17-.22-2.34-.45-3.51-.67Z"/>
</svg>