<?xml version="1.0" encoding="UTF-8"?>
<svg id="_Слой_9" data-name="Слой 9" xmlns="http://www.w3.org/2000/svg" viewBox="0 0 700 931">
  <defs>
    <style>
      .cls-1 {
        fill: none;
        stroke: #e50a0a;
        stroke-miterlimit: 10;
        stroke-width: 4px;
      }
    </style>
  </defs>
  <path class="cls-1" d="M229.39,75.3c.14,3.67-.04,9.13-1.91,15.33-1.68,5.59-3.53,7.76-5.46,11.93-4.7,10.16-4.24,19.88-3.84,28.11.26,5.43.79,4.99,4.45,24.88,1.99,10.81,2.98,16.21,3.64,21.24.78,5.92.73,7.39,2.22,33.17,1.04,17.88,1.19,19.48,1.01,24.07-.46,11.61-1.89,12.15-1.42,20.22.12,2.12.46,6.12,4.85,23.87,1.06,4.27,2.81,8.91,4.25,16.38.6,3.13.98,5.73,1.21,7.48"/>
  <path class="cls-1" d="M240.83,313.51c1.71,7.6,3.43,15.2,5.14,22.79"/>
  <path class="cls-1" d="M236.6,575.28c-3.33.05-9.15.58-15.59,3.57-2.56,1.19-7.73,3.66-12.13,8.9-5.03,5.99-3.15,8.55-8.29,15.37-3.56,4.72-7.48,7.5-11.73,10.52-7.77,5.51-9.04,4.17-13.96,8.49-3.85,3.39-6.07,6.91-10.52,13.96-4.16,6.59-4.04,7.7-6.67,11.12-4.04,5.24-8.95,8.65-13.35,10.92"/>
  <path class="cls-1" d="M135.46,670.07c-1.32,1.2-3.34,3.32-4.85,6.47-.99,2.06-3.39,7.07-1.62,10.11,1.33,2.28,4.77,3.06,15.78,2.43,12.55-.72,15.87-2.16,25.89-2.83,11.01-.73,16.66-1.03,22.25,2.63,5.67,3.71,8.24,9.51,8.49,10.11,1.35,3.16.77,3.94,2.22,11.12,1.53,7.54,2.34,11.36,4.65,13.75,3.01,3.11,7,3.61,12.13,4.25,4.63.58,8.51.3,17.8-1.21,13.72-2.23,13.22-2.92,19.01-3.44,8.26-.74,14.49.18,21.44,1.21,5.37.8,13.41,2.04,23.26,5.87,6.73,2.61,13.01,5.12,19.42,10.92,3.84,3.47,6.44,6.97,8.09,9.51"/>
  <path class="cls-1" d="M341.75,764.92c2.6,1.77,6.57,3.94,11.73,4.65,3,.41,4.17.02,7.48.4,1.7.2,7.95,1.05,12.54,4.04,7.95,5.18,9.26,15.68,9.49,17.98"/>
</svg>