<?xml version="1.0" encoding="UTF-8"?>
<svg id="_Слой_7" data-name="Слой 7" xmlns="http://www.w3.org/2000/svg" viewBox="0 0 700 931">
  <defs>
    <style>
      .cls-1 {
        fill: none;
        stroke: #e50a0a;
        stroke-miterlimit: 10;
        stroke-width: 4px;
      }
    </style>
  </defs>
  <path class="cls-1" d="M117.66,64.54c6.42-.1,16.19-.02,28.11,1.01,12.91,1.11,14.14,2.11,25.28,2.83,18.05,1.17,19.42-1.16,31.96.81,10.11,1.59,9.55,3.15,22.45,5.46,15.33,2.74,15.59.43,24.27,3.03,12.21,3.66,13.11,8.65,25.89,12.54,7.6,2.31,13.61,2.48,19.21,2.63,21.7.59,26.82-6.85,42.47-3.64,9.47,1.94,16.17,6.43,18.61,8.09,6.36,4.34,7.44,7.14,19.21,20.22,3.97,4.41,1.54,1.52,17.8,18.81,9.92,10.55,14.94,15.89,17.6,19.01,5.73,6.75,7.38,9.4,17.39,22.65,17.06,22.58,15.58,19.26,18.2,23.66,4.59,7.7,17.44,29.24,9.91,46.72-.39.89-4.23,5.25-11.93,13.96-17.54,19.84-21.36,23.07-26.7,32.16-2.92,4.96-3.21,6.43-6.07,10.11-4.46,5.74-8.15,7.81-16.18,15.37-3.39,3.19-6.03,5.92-7.69,7.69"/>
  <path class="cls-1" d="M370.07,338.65c-3.9,1.45-9.52,3.11-16.45,3.78-2.08.2-9.28.79-19.69-1.08-9-1.61-12.31-3.61-21.3-6.47-6.61-2.1-17.49-5.57-29.12-6.2-17.45-.95-30.97,4.76-36.13,7.01-7.13,3.1-21.4,9.53-31.55,24.27-2.53,3.67-6.88,10.14-8.36,19.42-.31,1.97-.63,4.88.27,15.91.95,11.64,1.42,17.47,2.97,24.81,2.73,12.96,4.9,12.58,8.63,27.51,1.95,7.8,1.29,7.63,4.31,23.46,3.06,15.98,3.68,15.88,5.93,28.04,2.86,15.42,4.28,23.13,4.58,33.98.22,7.82-.24,13.93.54,27.78.63,11.25,1.32,14.11,3.24,16.99,1.76,2.64,5.1,6.09,21.57,11.06,8.95,2.7,14.47,4.36,24.54,5.66,10.7,1.38,22.41,1.1,45.84.54,8.21-.2,19.06-.56,32.9,2.97,2.38.61,4.34,1.2,5.66,1.62"/>
  <path class="cls-1" d="M377.89,601.84c5.21,1.8,10.43,3.6,15.64,5.39"/>
  <path class="cls-1" d="M403.24,610.47c2.97,1.62,5.93,3.24,8.9,4.85"/>
  <path class="cls-1" d="M415.98,783.43c-10.98,2.57-23.98.57-32.98,8.57-6,5-5,13-4.84,21.26"/>
  <path class="cls-1" d="M417.53,623.15c-3.53,18.85,3.47,37.85,16.47,51.85,2,15-1,31-1,46,0,7,2,14,5,20l3,3c1,2,2,3,2,5,2,7,1,15-3.13,21.19"/>
  <path class="cls-1" d="M132.22,65.96c-.13,1.82-.27,3.64-.4,5.46"/>
  <path class="cls-1" d="M150.22,71.62v-4.45"/>
  <path class="cls-1" d="M169.64,73.64c.15-1.77.3-3.55.45-5.32"/>
  <path class="cls-1" d="M188.04,75.06c.2-1.82.4-3.64.61-5.46"/>
  <path class="cls-1" d="M207.26,76.88l1.01-5.66"/>
  <path class="cls-1" d="M217.98,78.9c.34-1.42.67-2.83,1.01-4.25"/>
  <path class="cls-1" d="M244.27,83.55v-5.87"/>
  <path class="cls-1" d="M260.45,88.81c.74-.81,1.48-1.62,2.22-2.43"/>
  <path class="cls-1" d="M277.64,95.89v-4.25"/>
  <path class="cls-1" d="M298.27,98.31c.07-1.48.13-2.97.2-4.45"/>
  <path class="cls-1" d="M316.67,96.49v-4.85"/>
  <path class="cls-1" d="M334.47,95.89c.27-1.96.54-3.91.81-5.87"/>
  <path class="cls-1" d="M351.06,101.15c1.08-1.01,2.16-2.02,3.24-3.03"/>
  <path class="cls-1" d="M364.4,113.69c1.21-.88,2.43-1.75,3.64-2.63"/>
  <path class="cls-1" d="M376.13,127.64c1.15-.94,2.29-1.89,3.44-2.83"/>
  <path class="cls-1" d="M389.08,141.19c1.21-1.01,2.43-2.02,3.64-3.03"/>
  <path class="cls-1" d="M438.02,198.63c1.01-.27,2.02-.54,3.03-.81"/>
  <path class="cls-1" d="M445.3,216.43c1.69-1.08,3.37-2.16,5.06-3.24"/>
  <path class="cls-1" d="M451.57,232.81h5.06"/>
  <path class="cls-1" d="M448.54,248.79l3.24,1.82"/>
  <path class="cls-1" d="M436.61,262.54l2.83,2.22"/>
  <path class="cls-1" d="M422.25,276.7c1.21,1.01,2.43,2.02,3.64,3.03"/>
  <path class="cls-1" d="M411.12,292.47c1.15.88,2.29,1.75,3.44,2.63"/>
  <path class="cls-1" d="M400.81,305.62c1.08,1.15,2.16,2.29,3.24,3.44"/>
  <path class="cls-1" d="M368.25,333.93c-.15,1.84-.3,3.68-.45,5.51"/>
  <path class="cls-1" d="M350.25,336.56l-.2,4.04"/>
  <path class="cls-1" d="M332.04,333.73c-.07,1.82-.13,3.64-.2,5.46"/>
  <path class="cls-1" d="M314.25,329.08c-.2,1.48-.4,2.97-.61,4.45"/>
  <path class="cls-1" d="M294.43,323.62c-.13,1.62-.27,3.24-.4,4.85"/>
  <path class="cls-1" d="M276.63,322.2c.07,1.42.13,2.83.2,4.25"/>
  <path class="cls-1" d="M257.42,324.63c.61,1.96,1.21,3.91,1.82,5.87"/>
  <path class="cls-1" d="M224.25,342.43c.94,1.01,1.89,2.02,2.83,3.03"/>
  <path class="cls-1" d="M210.7,356.79c1.01,1.28,2.02,2.56,3.03,3.84"/>
  <path class="cls-1" d="M206.65,375.6c-1.62-.2-3.24-.4-4.85-.61"/>
  <path class="cls-1" d="M201.6,395.21c1.75-.13,3.51-.27,5.26-.4"/>
  <path class="cls-1" d="M203.01,414.83c1.82-.07,3.64-.13,5.46-.2"/>
  <path class="cls-1" d="M208.27,433.84c1.48-.47,2.97-.94,4.45-1.42"/>
  <path class="cls-1" d="M213.73,451.84c1.62-.07,3.24-.13,4.85-.2"/>
  <path class="cls-1" d="M217.78,469.64l3.84-.4"/>
  <path class="cls-1" d="M222.02,487.24h3.03"/>
  <path class="cls-1" d="M228.49,526.07c1.15-.07,2.29-.13,3.44-.2"/>
  <path class="cls-1" d="M228.09,543.87h4.25"/>
  <path class="cls-1" d="M228.7,564.29c1.42-.13,2.83-.27,4.25-.4"/>
  <path class="cls-1" d="M235.98,584.72c1.21-1.08,2.43-2.16,3.64-3.24"/>
  <path class="cls-1" d="M273.39,597.46c.47-.94.94-1.89,1.42-2.83"/>
  <path class="cls-1" d="M290.99,599.48l.4-2.63"/>
  <path class="cls-1" d="M303.33,599.08c.2-.88.4-1.75.61-2.63"/>
  <path class="cls-1" d="M329.62,600.7c.81-1.48,1.62-2.97,2.43-4.45"/>
  <path class="cls-1" d="M350.04,601.1c.13-1.35.27-2.7.4-4.04"/>
  <path class="cls-1" d="M379.98,608.79c1.01-1.28,2.02-2.56,3.03-3.84"/>
  <path class="cls-1" d="M403.44,616.07l2.63-2.83"/>
  <path class="cls-1" d="M427.91,714.76c1.28.07,2.56.13,3.84.2"/>
  <path class="cls-1" d="M429.33,694.34c1.01.07,2.02.13,3.03.2"/>
  <path class="cls-1" d="M429.73,733.98c1.67-.85,3.35-1.7,5.02-2.55"/>
  <path class="cls-1" d="M437.42,751.57c2.19.1,4.38.2,6.56.3"/>
  <path class="cls-1" d="M398.18,780.7c.4,1.35.81,2.7,1.21,4.04"/>
  <path class="cls-1" d="M372.49,807.8c1.35.07,2.7.13,4.04.2"/>
</svg>