<?xml version="1.0" encoding="UTF-8"?>
<svg id="_Слой_5" data-name="Слой 5" xmlns="http://www.w3.org/2000/svg" viewBox="0 0 700 931">
  <defs>
    <style>
      .cls-1 {
        fill: none;
        stroke: #2d4697;
        stroke-miterlimit: 10;
      }
    </style>
  </defs>
  <line class="cls-1" x1="340.94" y1="576.24" x2="345.26" y2="563.72"/>
  <line class="cls-1" x1="347.42" y1="553.3" x2="350.91" y2="540"/>
  <line class="cls-1" x1="353.08" y1="533.78" x2="357.39" y2="518.5"/>
  <line class="cls-1" x1="360.09" y1="508.81" x2="363.6" y2="494.22"/>
  <polyline class="cls-1" points="365.58 488.58 367.78 478.34 360.09 478.34 371.32 454.34 381.96 478.07 375.04 478.61 377.02 488.58"/>
  <line class="cls-1" x1="377.89" y1="494.22" x2="377.89" y2="511.51"/>
  <path class="cls-1" d="M378.97,529.03v-11.6"/>
  <line class="cls-1" x1="349.84" y1="574.7" x2="350" y2="571.51"/>
  <line class="cls-1" x1="355.24" y1="570.83" x2="355.24" y2="568.13"/>
  <line class="cls-1" x1="355.24" y1="561.53" x2="355.24" y2="558.7"/>
  <line class="cls-1" x1="361.44" y1="566.92" x2="361.44" y2="563.72"/>
  <line class="cls-1" x1="360.9" y1="558.7" x2="360.9" y2="556.27"/>
  <line class="cls-1" x1="365.08" y1="545.48" x2="365.08" y2="541.98"/>
  <line class="cls-1" x1="359.28" y1="551.15" x2="359.28" y2="548.92"/>
  <line class="cls-1" x1="359.28" y1="540.76" x2="359.28" y2="538.65"/>
  <line class="cls-1" x1="363.6" y1="534.01" x2="363.6" y2="532.07"/>
  <line class="cls-1" x1="366.97" y1="526.14" x2="366.97" y2="523.24"/>
  <line class="cls-1" x1="361.44" y1="527.96" x2="361.84" y2="525.39"/>
  <line class="cls-1" x1="369.26" y1="519.19" x2="369.26" y2="516.9"/>
  <line class="cls-1" x1="363.6" y1="519.73" x2="364.13" y2="517.44"/>
  <line class="cls-1" x1="363.6" y1="514.61" x2="363.6" y2="512.18"/>
  <line class="cls-1" x1="368.45" y1="506.79" x2="368.45" y2="504.63"/>
  <line class="cls-1" x1="369.8" y1="501.51" x2="369.8" y2="499.24"/>
  <line class="cls-1" x1="367.64" y1="561.53" x2="367.64" y2="558.7"/>
  <line class="cls-1" x1="366.43" y1="553.3" x2="366.97" y2="550.61"/>
  <line class="cls-1" x1="373.57" y1="553.3" x2="373.57" y2="550.61"/>
  <line class="cls-1" x1="372.9" y1="545.48" x2="372.9" y2="543.73"/>
  <line class="cls-1" x1="367.64" y1="512.58" x2="368.45" y2="510.43"/>
  <line class="cls-1" x1="373.57" y1="505.71" x2="372.9" y2="503.55"/>
  <line class="cls-1" x1="373.24" y1="499.24" x2="372.9" y2="496.54"/>
  <line class="cls-1" x1="366.97" y1="493.02" x2="367.64" y2="489.93"/>
  <line class="cls-1" x1="371.02" y1="484.81" x2="371.02" y2="482.25"/>
  <line class="cls-1" x1="372.9" y1="493.02" x2="371.32" y2="489.93"/>
  <line class="cls-1" x1="366.43" y1="475.78" x2="366.43" y2="472.27"/>
  <line class="cls-1" x1="368.45" y1="469.03" x2="368.45" y2="466.34"/>
  <line class="cls-1" x1="371.32" y1="474.02" x2="371.02" y2="470.65"/>
  <line class="cls-1" x1="376.13" y1="475.78" x2="375.04" y2="472.34"/>
  <line class="cls-1" x1="372.9" y1="467.69" x2="372.9" y2="464.72"/>
  <line class="cls-1" x1="370.39" y1="464.18" x2="371.02" y2="461.32"/>
  <line class="cls-1" x1="356.85" y1="345.93" x2="358.74" y2="356.99"/>
  <line class="cls-1" x1="359.55" y1="363.06" x2="361.57" y2="378.83"/>
  <line class="cls-1" x1="362.25" y1="384.36" x2="365.58" y2="402.83"/>
  <polyline class="cls-1" points="365.58 409.71 366.29 417.12 361.57 417.12 372.63 441.12 383.96 416.99 377.08 417.39 377.35 409.71"/>
  <line class="cls-1" x1="378.97" y1="402.83" x2="381.93" y2="387.06"/>
  <line class="cls-1" x1="381.93" y1="378.83" x2="385.84" y2="360.99"/>
  <line class="cls-1" x1="362.25" y1="352.81" x2="362.25" y2="355.1"/>
  <line class="cls-1" x1="366.97" y1="356.18" x2="366.97" y2="358.61"/>
  <line class="cls-1" x1="368.99" y1="363.06" x2="368.99" y2="365.89"/>
  <line class="cls-1" x1="373.71" y1="363.73" x2="373.71" y2="365.89"/>
  <line class="cls-1" x1="363.33" y1="360.99" x2="363.33" y2="363.06"/>
  <line class="cls-1" x1="377.08" y1="365.89" x2="377.08" y2="368.18"/>
  <line class="cls-1" x1="363.92" y1="370.94" x2="364.67" y2="374.11"/>
  <line class="cls-1" x1="370.39" y1="372.53" x2="369.8" y2="374.92"/>
  <line class="cls-1" x1="376" y1="371.96" x2="376" y2="374.11"/>
  <line class="cls-1" x1="373.71" y1="380.18" x2="373.71" y2="382.34"/>
  <line class="cls-1" x1="368.99" y1="381.8" x2="368.99" y2="385.17"/>
  <line class="cls-1" x1="377.08" y1="387.06" x2="377.08" y2="389.75"/>
  <line class="cls-1" x1="366.97" y1="388.4" x2="366.97" y2="390.29"/>
  <line class="cls-1" x1="371.96" y1="389.35" x2="371.96" y2="392.99"/>
  <line class="cls-1" x1="376" y1="396.09" x2="374.87" y2="399.19"/>
  <line class="cls-1" x1="367.78" y1="394.94" x2="367.78" y2="397.64"/>
  <line class="cls-1" x1="371.02" y1="400.54" x2="371.32" y2="403.64"/>
  <line class="cls-1" x1="368.99" y1="405.12" x2="368.99" y2="407.96"/>
  <line class="cls-1" x1="373.71" y1="405.12" x2="373.71" y2="407.96"/>
  <line class="cls-1" x1="371.02" y1="411.19" x2="370.39" y2="414.69"/>
  <line class="cls-1" x1="373.71" y1="414.69" x2="373.71" y2="417.26"/>
  <line class="cls-1" x1="366.97" y1="419.42" x2="366.97" y2="421.71"/>
  <line class="cls-1" x1="370.71" y1="421.71" x2="370.39" y2="424.81"/>
  <line class="cls-1" x1="375.44" y1="420.49" x2="375.44" y2="423.26"/>
  <line class="cls-1" x1="372.76" y1="427.1" x2="372.76" y2="429.66"/>
</svg>