<?xml version="1.0" encoding="UTF-8"?>
<svg id="_Слой_4" data-name="Слой 4" xmlns="http://www.w3.org/2000/svg" viewBox="0 0 700 931">
  <defs>
    <style>
      .cls-1 {
        fill: none;
      }

      .cls-1, .cls-2 {
        stroke: #e50a0a;
        stroke-miterlimit: 10;
      }

      .cls-2 {
        fill: #fff;
      }
    </style>
  </defs>
  <path class="cls-1" d="M272.58,88.67c-5.7,7.55-14.91,17.36-28.72,24.4-3.35,1.71-6.61,3.07-9.71,4.16l4.85,3.84h-18.2l12.13-15.3v6.88c3.17-1.94,10.45-6.99,14.97-16.58,3.11-6.6,3.62-12.63,3.64-16.18l21.03,8.76Z"/>
  <line class="cls-2" x1="249.72" y1="91.49" x2="259.02" y2="83.02"/>
  <line class="cls-2" x1="238.12" y1="115.72" x2="264.48" y2="85.3"/>
  <line class="cls-2" x1="260.1" y1="102.09" x2="269.67" y2="87.46"/>
  <path class="cls-1" d="M341.48,90.43c-1.62,9.95-1.93,18.24-1.89,24.13.09,12.54,1.81,17.59,2.43,19.28,3.04,8.3,8.95,15.89,10.79,15.1.66-.28,1.14-1.8,0-7.69l8.29,15.51-16.12-2.07,5.93-2.52c-6.52-2.99-15.67-8.33-23.6-17.8-2.39-2.86-4.34-5.69-5.93-8.36-1.6,4.38-3.37,9.25-5.26,14.56-8.12,22.79-9.77,28.88-10.92,35.46-1.02,5.83-1.45,10.93-1.62,14.97l5.26-5.8-7.55,16.31-7.96-15.91,5.66,4.85c-1.84-17.07-4.61-30.7-6.88-40.18-2.36-9.89-4.27-15.69-7.82-30.34-1.51-6.22-2.79-11.87-3.86-16.78-.95-4.39-1.73-8.19-2.35-11.27l63.37-1.48Z"/>
  <line class="cls-2" x1="280.22" y1="102.09" x2="292.4" y2="91.58"/>
  <line class="cls-2" x1="282.13" y1="110.66" x2="301.03" y2="91.37"/>
  <line class="cls-2" x1="283.88" y1="118.17" x2="311.29" y2="91.13"/>
  <line class="cls-2" x1="285.7" y1="125.54" x2="321.13" y2="90.9"/>
  <line class="cls-2" x1="287.28" y1="131.69" x2="329.48" y2="90.71"/>
  <line class="cls-2" x1="289.18" y1="138.79" x2="339.59" y2="90.47"/>
  <line class="cls-2" x1="290.89" y1="145.28" x2="340.37" y2="98.78"/>
  <line class="cls-2" x1="292.67" y1="152.58" x2="339.66" y2="109.16"/>
  <line class="cls-2" x1="294.45" y1="160.8" x2="316.13" y2="140.58"/>
  <line class="cls-2" x1="295.91" y1="168.56" x2="311.93" y2="152.58"/>
  <path class="cls-2" d="M297.59,176.04l9.9-9.71-9.9,9.71Z"/>
  <line class="cls-2" x1="298.15" y1="183.21" x2="304.86" y2="178.2"/>
  <line class="cls-2" x1="324.19" y1="130.32" x2="339.59" y2="116.85"/>
  <line class="cls-2" x1="328.18" y1="135.37" x2="340.09" y2="124.4"/>
  <line class="cls-2" x1="332.29" y1="139.67" x2="341.45" y2="132.07"/>
  <line class="cls-2" x1="337.51" y1="144.13" x2="343.86" y2="138.12"/>
  <line class="cls-2" x1="343.13" y1="148.01" x2="346.91" y2="143.44"/>
  <path class="cls-1" d="M406.34,151.37c-7.71,4.51-18.74,12.46-27.78,25.62-5.22,7.59-13.93,20.28-12.81,36.81.22,3.23.76,5.88,1.22,7.69l-5.26-2.02,8.69,14.02,3.85-16.04-3.08,3.14c-.03-3.23.37-8.27,2.95-13.53,1.68-3.43,3.69-5.72,9.03-10.92,8.38-8.16,12.57-12.24,16.45-14.97,4.66-3.28,11.74-7.53,21.3-10.79l-14.56-19.01Z"/>
  <line class="cls-2" x1="365.75" y1="213.8" x2="374.87" y2="205.64"/>
  <line class="cls-2" x1="366.48" y1="202.48" x2="413.62" y2="160.88"/>
  <line class="cls-2" x1="370.71" y1="190" x2="409.34" y2="155.29"/>
  <path class="cls-1" d="M447.19,205.98c-5.45-3.05-11.81-2.22-24.54-.54-7.24.95-12.85,1.69-19.42,4.85-9.58,4.61-15.74,11.74-19.42,17.26l-2.16-6.99-5.39,14.03,13.78-1.74-4.73-2.94c1.02-1.08,2.56-2.56,4.65-4.02,13.66-9.58,31.22-4.85,33.22-4.28,20.96,5.98,26.3,26.47,31.82,24.27,6.29-2.51,6.35-31.96-7.82-39.91Z"/>
  <line class="cls-2" x1="389.97" y1="225.9" x2="405.81" y2="209.16"/>
  <line class="cls-2" x1="403.69" y1="220.48" x2="416.86" y2="206.25"/>
  <line class="cls-2" x1="412.73" y1="220" x2="427.89" y2="204.76"/>
  <line class="cls-2" x1="420.9" y1="221.05" x2="438.12" y2="203.93"/>
  <line class="cls-2" x1="428.69" y1="223.65" x2="446.54" y2="205.64"/>
  <line class="cls-2" x1="434.15" y1="226.74" x2="452.37" y2="210.51"/>
  <line class="cls-2" x1="438.85" y1="230.44" x2="456.07" y2="217.01"/>
  <line class="cls-2" x1="443.26" y1="234.92" x2="457.87" y2="222.69"/>
  <line class="cls-2" x1="448.35" y1="241.13" x2="458.98" y2="230.44"/>
  <path class="cls-1" d="M440.85,265.37c-8.39-1.65-17.4-3.76-26.9-6.47-9.51-2.71-18.29-5.67-26.29-8.7l5.66-2.42-17.06-2.94,11.23,13.45v-5.87c2.35,1.69,4.73,3.57,7.11,5.66,12.09,10.63,19.55,22.67,24.2,32.56l22.04-25.28Z"/>
  <line class="cls-2" x1="415.2" y1="283.65" x2="434.15" y2="263.98"/>
  <line class="cls-2" x1="411.71" y1="277.9" x2="425.59" y2="261.99"/>
  <line class="cls-2" x1="406.85" y1="271.08" x2="418.04" y2="260.04"/>
  <line class="cls-2" x1="401.99" y1="265.33" x2="409.59" y2="257.62"/>
  <line class="cls-2" x1="397.64" y1="260.87" x2="402.66" y2="255.46"/>
  <line class="cls-2" x1="391.77" y1="255.69" x2="394.61" y2="252.74"/>
  <path class="cls-1" d="M279.06,180.7c-2.88,3.56-6.1,7.25-9.71,10.98-7.55,7.8-15.09,14.05-21.98,19.01l1.62-5.06-16.85,12.88,22.12,1.16-6.61-4.26c1.76.1,3.56.14,5.39.13,16.32-.07,30.48-4.43,41.8-9.71"/>
  <line class="cls-2" x1="238.47" y1="218.85" x2="242.61" y2="210.51"/>
  <line class="cls-2" x1="248.99" y1="215.48" x2="253.5" y2="206.06"/>
  <line class="cls-2" x1="279.08" y1="211.77" x2="290.89" y2="199.64"/>
  <line class="cls-2" x1="268.17" y1="214.25" x2="288.63" y2="192.43"/>
  <line class="cls-2" x1="256.34" y1="215.48" x2="285.53" y2="186.43"/>
  <path class="cls-1" d="M366.29,251.01c-5.34,1.94-13.3,4.38-23.19,5.66-6.02.78-8.75.62-29.12.27-24.84-.43-26.94-.29-35.87-.81-9.4-.55-17.19-1.3-22.65-1.89l3.73,7.23-27.06-8.74,24.21-8.85-2.09,6.59,61.91-16.99"/>
  <line class="cls-1" x1="242.61" y1="256.12" x2="249.36" y2="246.44"/>
  <line class="cls-1" x1="249.36" y1="258.3" x2="254.25" y2="250.47"/>
  <line class="cls-1" x1="261.95" y1="254.39" x2="266.69" y2="247.06"/>
  <line class="cls-1" x1="269.96" y1="255.46" x2="279.08" y2="243.66"/>
  <path class="cls-1" d="M292.67,239.93c-4.62,5.41-9.25,10.83-13.87,16.24"/>
  <line class="cls-1" x1="286.07" y1="256.49" x2="304.72" y2="236.63"/>
  <line class="cls-1" x1="295.39" y1="256.66" x2="315.86" y2="233.57"/>
  <line class="cls-1" x1="306.09" y1="256.81" x2="330.16" y2="231.87"/>
  <line class="cls-1" x1="315.86" y1="256.81" x2="340.34" y2="232.27"/>
  <line class="cls-1" x1="322.94" y1="257.1" x2="343.98" y2="236.63"/>
  <line class="cls-1" x1="331.64" y1="257.23" x2="353.15" y2="236.25"/>
  <line class="cls-1" x1="341.08" y1="257.1" x2="357.8" y2="239.62"/>
  <line class="cls-1" x1="352.17" y1="255.1" x2="363.66" y2="242.25"/>
  <path class="cls-1" d="M392.58,302.25c-5.27-1.62-12.84-3.72-22.11-5.53-6.62-1.29-11.83-1.96-21.98-3.24-13.55-1.71-20.32-2.56-28.04-3.1-7.59-.53-18.19-1.24-31.96-.54-8.05.41-18.54,1.36-30.74,3.64l3.64-6.2-21.98,10.92,10.83,3.24,13.49,4.04-6.52-5.8c5.95-.11,12.31.11,19.01.82,29.08,3.06,52.1,13.9,67.69,23.45"/>
  <line class="cls-2" x1="250.24" y1="301.44" x2="257.75" y2="293.48"/>
  <line class="cls-2" x1="261.95" y1="299.67" x2="266.23" y2="292.06"/>
  <line class="cls-2" x1="269.96" y1="299.97" x2="276.6" y2="290.76"/>
  <line class="cls-2" x1="278.33" y1="300.74" x2="286.46" y2="289.96"/>
  <line class="cls-2" x1="285.74" y1="301.81" x2="294.43" y2="289.62"/>
  <line class="cls-2" x1="293.61" y1="303.35" x2="304.72" y2="289.6"/>
  <line class="cls-2" x1="299.21" y1="304.71" x2="313.82" y2="289.96"/>
  <line class="cls-2" x1="305.63" y1="306.54" x2="321.02" y2="290.42"/>
  <line class="cls-2" x1="312.68" y1="308.89" x2="329.42" y2="290.76"/>
  <line class="cls-2" x1="319.44" y1="311.5" x2="337.82" y2="292.15"/>
  <line class="cls-2" x1="325.18" y1="313.98" x2="345.4" y2="293.09"/>
  <line class="cls-2" x1="331.15" y1="316.85" x2="354.07" y2="294.19"/>
  <line class="cls-2" x1="336.9" y1="319.88" x2="361.66" y2="295.22"/>
  <line class="cls-2" x1="342.61" y1="323.17" x2="369.67" y2="296.57"/>
  <line class="cls-2" x1="352.17" y1="323.96" x2="377.58" y2="298.23"/>
  <line class="cls-2" x1="369.67" y1="317.48" x2="385.93" y2="300.32"/>
  <path class="cls-1" d="M242.52,599.28c-6.07-1.17-12.13-2.34-18.2-3.51l5.26-2.16-16.86-6.47,7.42,16.72.67-5.26,24.94,14.43c-2.74,2.02-5.79,4.02-9.17,5.89-15.29,8.48-30.36,10.63-40.99,10.96l3.51-3.24-17.26,3.37,14.29,9.84v-5.2c3.13.97,6.45,1.86,9.98,2.64,12.12,2.66,23.15,3.13,32.36,2.7-3.15,3.53-8.07,8.35-15.04,12.67-5.62,3.49-10.63,5.25-20.42,8.63-14.27,4.92-25.63,7.42-30.88,8.49-7.59,1.55-14.09,2.5-19.01,3.1l3.51-6.2-20.36,13.21,22.38,1.62-3.37-3.97c8.88.02,21.65-.26,36.94-1.69,23.53-2.2,39.76-3.71,57.3-10.52,11.45-4.44,30.53-13.88,49.62-34.92"/>
  <line class="cls-2" x1="143.29" y1="680.42" x2="154.45" y2="670.55"/>
  <line class="cls-2" x1="155.96" y1="677.56" x2="160.28" y2="671.91"/>
  <line class="cls-2" x1="165" y1="677.45" x2="169.96" y2="670.23"/>
  <line class="cls-2" x1="173.22" y1="677.17" x2="181.1" y2="667.78"/>
  <line class="cls-2" x1="183.07" y1="676.61" x2="191.8" y2="664.88"/>
  <line class="cls-2" x1="193.17" y1="675.78" x2="206.51" y2="660.09"/>
  <line class="cls-2" x1="203.41" y1="674.8" x2="221.56" y2="653.79"/>
  <line class="cls-2" x1="212.25" y1="673.84" x2="279.33" y2="605.62"/>
  <line class="cls-2" x1="189.42" y1="635.24" x2="195.6" y2="629.89"/>
  <line class="cls-2" x1="198.04" y1="635.24" x2="203.41" y2="629.33"/>
  <line class="cls-2" x1="205" y1="637.05" x2="213.35" y2="627.68"/>
  <line class="cls-2" x1="212.25" y1="638.48" x2="224.48" y2="624.44"/>
  <polyline class="cls-2" points="219.85 639.5 245.75 613.03 254.79 604.4"/>
  <line class="cls-2" x1="217.18" y1="597.21" x2="223.43" y2="591.26"/>
  <line class="cls-2" x1="228.76" y1="603.2" x2="234.39" y2="597.72"/>
  <line class="cls-2" x1="234.39" y1="606.46" x2="241.74" y2="599.13"/>
  <line class="cls-2" x1="240.53" y1="610.01" x2="247.37" y2="602.8"/>
  <line class="cls-2" x1="228.09" y1="640.06" x2="261.93" y2="605.08"/>
  <line class="cls-2" x1="236.9" y1="640.06" x2="268.38" y2="607.78"/>
  <line class="cls-2" x1="222.24" y1="672.48" x2="281.21" y2="613.17"/>
  <line class="cls-2" x1="232.36" y1="670.55" x2="286.43" y2="616.87"/>
  <line class="cls-2" x1="243.95" y1="667.35" x2="299.68" y2="611.01"/>
  <line class="cls-2" x1="261.39" y1="659.98" x2="311.69" y2="607.78"/>
  <path class="cls-1" d="M401.01,624.36c-4.98,2.31-12.75,5.85-22.45,9.91-12.85,5.38-15.28,5.91-23.26,9.71-6.53,3.11-14.97,7.17-24.67,14.16-1.38,1-7.24,5.25-15.57,13.15-7.38,6.99-17.16,17.27-27.3,31.35l7.02-2.83-17.63,23.66-1.32-28.52,6.16,3.6c2.78-10.86,7.22-24.14,14.47-38.45,5.71-11.28,11.9-20.68,17.6-28.25"/>
  <line class="cls-1" x1="324.76" y1="617.68" x2="332.25" y2="610.01"/>
  <line class="cls-2" x1="283.35" y1="693.51" x2="308.08" y2="670.55"/>
  <line class="cls-2" x1="288.02" y1="679.32" x2="298.27" y2="671.79"/>
  <line class="cls-2" x1="302.97" y1="648.29" x2="319.2" y2="631.54"/>
  <line class="cls-2" x1="305.45" y1="654.29" x2="326.99" y2="632.65"/>
  <line class="cls-2" x1="310.71" y1="658.64" x2="336.49" y2="633.16"/>
  <line class="cls-2" x1="318.49" y1="659.98" x2="346.3" y2="632.15"/>
  <line class="cls-2" x1="329.93" y1="658.64" x2="355.4" y2="631.03"/>
  <line class="cls-2" x1="350.98" y1="646.06" x2="368.25" y2="627.51"/>
  <line class="cls-2" x1="366.94" y1="638.99" x2="375.04" y2="631.03"/>
  <line class="cls-2" x1="332.25" y1="619.51" x2="337.81" y2="613.17"/>
  <line class="cls-2" x1="342.06" y1="618.92" x2="347.11" y2="614.55"/>
  <line class="cls-2" x1="350.91" y1="620.31" x2="354.19" y2="616.34"/>
  <line class="cls-2" x1="386.15" y1="628.71" x2="393.73" y2="621.3"/>
  <line class="cls-2" x1="380.48" y1="624.36" x2="387.36" y2="618.33"/>
  <line class="cls-2" x1="376.24" y1="620.72" x2="380.48" y2="616.74"/>
  <line class="cls-2" x1="362.79" y1="615.66" x2="365.75" y2="612.33"/>
  <line class="cls-2" x1="357.43" y1="613.85" x2="359.61" y2="611.82"/>
  <path class="cls-1" d="M427.64,678.56c-6.1,1.74-13.87,4.57-22.25,9.3-8.1,4.58-13.32,9.04-19.01,13.89-7.49,6.38-12.19,10.45-16.58,17.39-3.18,5.03-5,9.67-6.07,12.94l6.61-1.75-16.99,23.33v-28.58l4.9,5.12c.07-6.39.65-13.5,2.11-21.11,5.28-27.47,19.22-47.14,28.85-58.31"/>
  <line class="cls-2" x1="358.25" y1="730.2" x2="368.79" y2="720.81"/>
  <line class="cls-2" x1="358.85" y1="719.43" x2="406.68" y2="674.7"/>
  <line class="cls-2" x1="360.24" y1="709.71" x2="402.56" y2="669.8"/>
  <line class="cls-2" x1="362.54" y1="699.8" x2="401.75" y2="662.92"/>
  <line class="cls-2" x1="367.89" y1="684.62" x2="404.99" y2="650.79"/>
  <line class="cls-2" x1="380.17" y1="662.47" x2="401.01" y2="644.84"/>
  <line class="cls-2" x1="398.48" y1="692.18" x2="411.06" y2="678.02"/>
  <line class="cls-2" x1="365.69" y1="764.07" x2="372.76" y2="756.22"/>
  <line class="cls-2" x1="376.26" y1="763.96" x2="381.4" y2="756.3"/>
  <line class="cls-2" x1="384.48" y1="764.89" x2="393.8" y2="754.62"/>
  <line class="cls-2" x1="393.12" y1="765.87" x2="404.77" y2="751.99"/>
  <path class="cls-1" d="M407.55,760.15l11.73-11.61c-7.32,1.71-13.17,3.12-16.99,4.04-8.2,1.99-10.94,2.7-15.24,3.24-6,.74-10.99.63-14.29.4l3.37-4.45-20.63,7.96,10.18,4.34,11.34,4.83-3.58-5.26,25.04,2.83"/>
</svg>