<?xml version="1.0" encoding="UTF-8"?>
<svg id="_Слой_6" data-name="Слой 6" xmlns="http://www.w3.org/2000/svg" viewBox="0 0 700 931">
  <defs>
    <style>
      .cls-1 {
        fill: none;
        stroke: #ea0f3e;
        stroke-miterlimit: 10;
      }
    </style>
  </defs>
  <polyline class="cls-1" points="415.2 394.94 394.61 348.09 399.26 344.65 385.93 328.88 383.96 347.69 383.89 350.53 390.9 349.32 392.58 404.31"/>
  <path class="cls-1" d="M372.76,515.98l2.67,71.17-6.45-9.57,3.12,28.83,16.29-27.09-10.04,9.59c.28-3.97.92-8.22,2.12-12.65,6.53-24.13,25.25-38.24,34.08-43.98.47,7.33.47,15.84-.54,25.21-1.85,17.18-6.44,31.31-10.79,41.66l-3.65-7.89-2.55,21.57,20.49-15.62-12.54,5.59c2.5-5.43,7.01-13.25,14.97-20.33,3.37-3,6.71-5.3,9.71-7.05"/>
  <path class="cls-1" d="M435.33,577.84c-1.03,3.61-2.35,7.51-4.04,11.6-3.45,8.3-7.53,15.12-11.33,20.49v-12.22l-7.82,24.24,19.96-11.94-8.78,1c3.88-4.53,9.94-10.46,18.64-15.37,16.14-9.11,31.75-9.29,38.95-8.9"/>
</svg>